<svg width="1711" height="258" viewBox="0 0 1711 258" fill="none" xmlns="http://www.w3.org/2000/svg">
<path d="M868.552 256.332C1234.37 256.332 1530.92 222.42 1530.92 180.587C1530.92 138.753 1234.37 104.841 868.552 104.841C502.734 104.841 206.18 138.753 206.18 180.587C206.18 222.42 502.734 256.332 868.552 256.332Z" fill="#F2F2F2"/>
<path d="M1708.2 133H1689.7C1688.2 133 1687 134.2 1687 135.7C1687 137.2 1688.2 138.4 1689.7 138.4H1708.2C1709.7 138.4 1710.9 137.2 1710.9 135.7C1710.9 134.2 1709.7 133 1708.2 133Z" fill="#3AD9DB"/>
<path d="M1668.7 138.4H1675.6C1677.1 138.4 1678.3 137.2 1678.3 135.7C1678.3 134.2 1677.1 133 1675.6 133H1668.7C1667.2 133 1666 134.2 1666 135.7C1666 137.2 1667.2 138.4 1668.7 138.4Z" fill="#3AD9DB"/>
<path d="M1698.7 153.7C1698.7 152.2 1697.5 151 1696 151H1674.7C1673.2 151 1672 152.2 1672 153.7C1672 155.2 1673.2 156.4 1674.7 156.4H1696C1697.4 156.5 1698.7 155.3 1698.7 153.7Z" fill="#3AD9DB"/>
<path d="M1659.7 151C1658.2 151 1657 152.2 1657 153.7C1657 155.2 1658.2 156.4 1659.7 156.4H1662C1663.5 156.4 1664.7 155.2 1664.7 153.7C1664.7 152.2 1663.5 151 1662 151H1659.7Z" fill="#3AD9DB"/>
<path d="M1605.2 16.4C1609.7 16.4 1613.4 12.7 1613.4 8.2C1613.4 3.7 1609.7 0 1605.2 0C1600.7 0 1597 3.7 1597 8.2C1596.9 12.7 1600.6 16.4 1605.2 16.4ZM1605.2 5.4C1606.7 5.4 1607.9 6.6 1607.9 8.1C1607.9 9.6 1606.7 10.8 1605.2 10.8C1603.7 10.8 1602.5 9.6 1602.5 8.1C1602.4 6.7 1603.6 5.4 1605.2 5.4Z" fill="#3AD9DB"/>
<path d="M1575.6 25.9V25.7C1575.6 24.2 1574.4 23.1 1573 23.1H1568.5V18.6C1568.5 17.1 1567.3 16 1565.9 16H1565.7C1564.2 16 1563.1 17.2 1563.1 18.6V23.1H1558.6C1557.1 23.1 1556 24.3 1556 25.7V25.9C1556 27.4 1557.2 28.5 1558.6 28.5H1563.1V33C1563.1 34.5 1564.3 35.6 1565.7 35.6H1565.9C1567.4 35.6 1568.5 34.4 1568.5 33V28.5H1573C1574.4 28.6 1575.6 27.4 1575.6 25.9Z" fill="#3AD9DB"/>
<path d="M1620.7 155.8H1590.2C1586.2 155.8 1582.9 154.8 1580.3 152.9C1576.8 150.3 1576 147.3 1576 145.2V35.6C1576 33.5 1576.7 30.5 1580.3 27.9C1582.9 26 1586.2 25 1590.2 25H1620.6C1634 25 1644.9 28.5 1653 35.4C1661.2 42.4 1665.4 53.4 1665.4 68.1V112.7C1665.4 127.4 1661.2 138.4 1653 145.4C1645 152.3 1634.1 155.8 1620.7 155.8ZM1590.2 30C1587.3 30 1585 30.6 1583.3 31.9C1581.3 33.4 1581 34.7 1581 35.6V145.2C1581 146.1 1581.2 147.4 1583.3 148.9C1585 150.2 1587.4 150.8 1590.2 150.8H1620.6C1632.8 150.8 1642.6 147.7 1649.8 141.6C1656.9 135.6 1660.4 125.9 1660.4 112.7V68.2C1660.4 55 1656.8 45.3 1649.8 39.3C1642.6 33.2 1632.8 30.1 1620.6 30.1H1590.2V30ZM1620.7 132.4H1605.4C1604 132.4 1602.9 131.3 1602.9 129.9V50.9C1602.9 49.5 1604 48.4 1605.4 48.4H1620.7C1628.9 48.4 1638.7 51.8 1638.7 68.1V112.7C1638.7 128.9 1628.9 132.4 1620.7 132.4ZM1607.9 127.4H1620.7C1629.6 127.4 1633.7 122.7 1633.7 112.7V68.2C1633.7 58.2 1629.6 53.5 1620.7 53.5H1607.9V127.4V127.4Z" fill="#3AD9DB"/>
<path d="M1482 66H1524.5C1525.9 66 1527 64.9 1527 63.5C1527 62.1 1525.9 61 1524.5 61H1482V66V66Z" fill="#3AD9DB"/>
<path d="M1511 130.1C1511 134.6 1514.6 138.2 1519.1 138.2C1523.6 138.2 1527.2 134.5 1527.2 130.1C1527.2 125.6 1523.6 122 1519.1 122C1514.6 122 1511 125.7 1511 130.1ZM1522.3 130.1C1522.3 131.8 1520.9 133.2 1519.2 133.2C1517.5 133.2 1516.1 131.8 1516.1 130.1C1516.1 128.4 1517.5 127 1519.2 127C1520.9 127 1522.3 128.4 1522.3 130.1Z" fill="#3AD9DB"/>
<path d="M1197 79.1C1198.4 79.1 1199.5 78 1199.5 76.6V76.5C1199.5 75.1 1198.4 74 1197 74H1188.5C1187.1 74 1186 75.1 1186 76.5V76.6C1186 78 1187.1 79.1 1188.5 79.1H1197Z" fill="#3AD9DB"/>
<path d="M1242 79.1C1243.4 79.1 1244.5 78 1244.5 76.6V76.5C1244.5 75.1 1243.4 74 1242 74H1233.5C1232.1 74 1231 75.1 1231 76.5V76.6C1231 78 1232.1 79.1 1233.5 79.1H1242Z" fill="#3AD9DB"/>
<path d="M1064.5 61H1079.4V56H1064.5C1063.1 56 1062 57.1 1062 58.5V58.6C1062.1 59.9 1063.2 61 1064.5 61Z" fill="#3AD9DB"/>
<path d="M1033 38.5C1033 40 1034.1 41.1 1035.5 41.1H1048.5C1049.9 41.1 1051 40 1051 38.6V38.5C1051 37.1 1049.9 36 1048.5 36H1035.5C1034.1 36 1033 37.1 1033 38.5Z" fill="#3AD9DB"/>
<path d="M1191 135.5C1191 137 1192.1 138.1 1193.5 138.1H1206.5C1207.9 138.1 1209 137 1209 135.6V135.5C1209 134.1 1207.9 133 1206.5 133H1193.5C1192.1 133 1191 134.1 1191 135.5Z" fill="#3AD9DB"/>
<path d="M1068.5 36C1069.9 36 1071 34.9 1071 33.5C1071 32.1 1069.9 31 1068.5 31C1067.1 31 1066 32.1 1066 33.5C1066 34.9 1067.1 36 1068.5 36Z" fill="#3AD9DB"/>
<path d="M137.3 142.8C129 142.8 123.2 139.9 120.1 134.3L92.1001 83.3V132C92.1001 134.5 91.2001 137.9 86.8001 140.3C83.8001 141.9 80.2001 142.8 76.1001 142.8C72.0001 142.8 68.4001 142 65.4001 140.3C61.1001 137.9 60.1001 134.5 60.1001 132V22.8C60.1001 20.3 61.0001 16.9 65.4001 14.5C68.4001 12.9 72.0001 12 76.1001 12C81.8001 12 85.9001 12.8 88.8001 14.6C91.7001 16.4 94.7001 20.3 98.1001 26.8L121.2 70.9V22.6C121.2 20.1 122.1 16.6 126.5 14.4C129.5 12.8 133.1 12.1 137.1 12.1C141.2 12.1 144.7 12.9 147.7 14.4C152.1 16.7 153 20.1 153 22.6V132C153 134.5 152.1 137.9 147.7 140.3C145 141.9 141.4 142.8 137.3 142.8ZM89.7001 71C90.6001 71 91.4001 71.5 91.9001 72.3L124.6 131.8C126.8 135.8 131 137.7 137.4 137.7C140.6 137.7 143.4 137.1 145.7 135.9C148 134.6 148.4 133.1 148.4 132V22.6C148.4 21.5 148.1 20 145.8 18.8C143.5 17.6 140.7 17 137.5 17C134.3 17 131.5 17.6 129.2 18.8C126.9 20 126.6 21.5 126.6 22.6V81.1C126.6 82.3 125.8 83.3 124.7 83.5C123.6 83.8 122.4 83.3 121.9 82.2L94.0001 29.1C90.4001 22.2 88.0001 19.8 86.6001 18.9C84.5001 17.7 81.1001 17 76.5001 17C73.3001 17 70.5001 17.6 68.2001 18.8C65.9001 20.1 65.5001 21.6 65.5001 22.7V131.9C65.5001 133.1 65.8001 134.5 68.1001 135.8C70.4001 137 73.1001 137.6 76.4001 137.6C79.6001 137.6 82.4001 137 84.7001 135.8C87.0001 134.5 87.3001 133 87.3001 131.9V73.4C87.3001 72.3 88.1001 71.3 89.2001 71C89.3001 71 89.5001 71 89.7001 71Z" fill="#3AD9DB"/>
<path d="M32.8001 104.5C28.3001 104.5 24.6001 108.2 24.6001 112.7C24.6001 117.2 28.3001 120.9 32.8001 120.9C37.3001 120.9 41.0001 117.2 41.0001 112.7C41.0001 108.2 37.4001 104.5 32.8001 104.5ZM32.8001 115.5C31.3001 115.5 30.1001 114.3 30.1001 112.8C30.1001 111.3 31.3001 110.1 32.8001 110.1C34.3001 110.1 35.5001 111.3 35.5001 112.8C35.5001 114.3 34.3001 115.5 32.8001 115.5Z" fill="#3AD9DB"/>
<path d="M52.8 57.7V57.5C52.8 56 51.6 54.9 50.2 54.9H2.6C1.1 54.9 0 56.1 0 57.5V57.7C0 59.2 1.2 60.3 2.6 60.3H50.1C51.6 60.3 52.8 59.1 52.8 57.7Z" fill="#3AD9DB"/>
<path d="M36.2001 45.2H42.6001C44.1001 45.2 45.2001 44 45.2001 42.6V42.4C45.2001 40.9 44.0001 39.8 42.6001 39.8H36.2001C34.7001 39.8 33.6001 41 33.6001 42.4V42.6C33.6001 44 34.7001 45.2 36.2001 45.2Z" fill="#3AD9DB"/>
<path d="M21.8001 69.2C20.3001 69.2 19.2001 70.4 19.2001 71.8V72C19.2001 73.5 20.4001 74.6 21.8001 74.6H30.9001C32.4001 74.6 33.5001 73.4 33.5001 72V71.8C33.5001 70.3 32.3001 69.2 30.9001 69.2H21.8001Z" fill="#3AD9DB"/>
<path d="M91.9001 86.2C91.9001 84.9 91.0001 83.8 89.7001 83.6V88.8C90.9001 88.6 91.9001 87.5 91.9001 86.2Z" fill="#3AD9DB"/>
<path d="M1524.2 156.8C1515.9 156.8 1510.1 153.9 1507 148.3L1479 97.3V146C1479 148.5 1478.1 151.9 1473.7 154.3C1470.7 155.9 1467.1 156.8 1463 156.8C1458.9 156.8 1455.3 156 1452.3 154.3C1448 151.9 1447 148.5 1447 146V36.8C1447 34.3 1447.9 30.9 1452.3 28.5C1455.3 26.9 1458.9 26 1463 26C1468.7 26 1472.8 26.8 1475.7 28.6C1478.6 30.4 1481.6 34.3 1485 40.8L1508.1 84.9V36.6C1508.1 34.1 1509 30.6 1513.4 28.4C1516.4 26.8 1520 26.1 1524 26.1C1528.1 26.1 1531.6 26.9 1534.6 28.4C1539 30.7 1539.9 34.1 1539.9 36.6V146C1539.9 148.5 1539 151.9 1534.6 154.3C1531.9 155.9 1528.3 156.8 1524.2 156.8ZM1476.6 85C1477.5 85 1478.3 85.5 1478.8 86.3L1511.5 145.8C1513.7 149.8 1517.9 151.7 1524.3 151.7C1527.5 151.7 1530.3 151.1 1532.6 149.9C1534.9 148.6 1535.3 147.1 1535.3 146V36.6C1535.3 35.5 1535 34 1532.7 32.8C1530.4 31.6 1527.6 31 1524.4 31C1521.2 31 1518.4 31.6 1516.1 32.8C1513.8 34 1513.5 35.5 1513.5 36.6V95.1C1513.5 96.3 1512.7 97.3 1511.6 97.5C1510.5 97.8 1509.3 97.3 1508.8 96.2L1480.9 43.1C1477.3 36.2 1474.9 33.8 1473.5 32.9C1471.4 31.7 1468 31 1463.4 31C1460.2 31 1457.4 31.6 1455.1 32.8C1452.8 34.1 1452.4 35.6 1452.4 36.7V145.9C1452.4 147.1 1452.7 148.5 1455 149.8C1457.3 151 1460 151.6 1463.3 151.6C1466.5 151.6 1469.3 151 1471.6 149.8C1473.9 148.5 1474.2 147 1474.2 145.9V87.4C1474.2 86.3 1475 85.3 1476.1 85C1476.2 85 1476.4 85 1476.6 85Z" fill="#3AD9DB"/>
<path d="M221.7 143.8C208.4 143.8 197.6 140.3 189.5 133.4C181.3 126.4 177.1 115.4 177.1 100.7V55.1C177.1 40.4 181.3 29.4 189.5 22.4C197.6 15.5 208.5 12 221.7 12C235.1 12 246 15.5 254.1 22.4C262.3 29.4 266.5 40.4 266.5 55.1V100.7C266.5 115.4 262.3 126.4 254.1 133.4C246 140.3 235.1 143.8 221.7 143.8ZM221.7 17C209.6 17 199.9 20.1 192.7 26.2C185.6 32.2 182.1 41.9 182.1 55.1V100.7C182.1 113.9 185.7 123.6 192.7 129.6C199.9 135.7 209.6 138.8 221.7 138.8C233.9 138.8 243.7 135.7 250.9 129.6C258 123.6 261.5 113.9 261.5 100.7V55.1C261.5 41.9 257.9 32.2 250.9 26.2C243.7 20.1 233.9 17 221.7 17ZM221.7 120.4C213.6 120.4 203.9 117 203.9 100.7V55.1C203.9 38.8 213.6 35.4 221.7 35.4C229.9 35.4 239.7 38.8 239.7 55.1V100.7C239.7 117 229.9 120.4 221.7 120.4ZM221.7 40.4C213 40.4 208.9 45.1 208.9 55.1V100.7C208.9 110.9 212.9 115.4 221.7 115.4C230.6 115.4 234.7 110.7 234.7 100.7V55.1C234.7 45.1 230.6 40.4 221.7 40.4Z" fill="#3AD9DB"/>
<path d="M172 79.3C170.5 79.3 169.4 80.5 169.4 81.9V82.1C169.4 83.6 170.6 84.7 172 84.7H179.6V79.2H172V79.3Z" fill="#3AD9DB"/>
<path d="M218.1 82.2V82C218.1 80.5 216.9 79.4 215.5 79.4H206.5V84.9H215.5C216.9 84.8 218.1 83.6 218.1 82.2Z" fill="#3AD9DB"/>
<path d="M167.9 110.2C166.4 110.2 165.3 111.4 165.3 112.8V113C165.3 114.5 166.5 115.6 167.9 115.6H181.4C180.9 113.9 180.5 112 180.2 110.1H167.9V110.2Z" fill="#3AD9DB"/>
<path d="M1244.6 156.8C1231.3 156.8 1220.5 153.3 1212.4 146.4C1204.2 139.4 1200 128.4 1200 113.7V68.1C1200 53.4 1204.2 42.4 1212.4 35.4C1220.5 28.5 1231.4 25 1244.6 25C1258 25 1268.9 28.5 1277 35.4C1285.2 42.4 1289.4 53.4 1289.4 68.1V113.7C1289.4 128.4 1285.2 139.4 1277 146.4C1268.9 153.3 1258 156.8 1244.6 156.8ZM1244.6 30C1232.5 30 1222.8 33.1 1215.6 39.2C1208.5 45.2 1205 54.9 1205 68.1V113.7C1205 126.9 1208.6 136.6 1215.6 142.6C1222.8 148.7 1232.5 151.8 1244.6 151.8C1256.8 151.8 1266.6 148.7 1273.8 142.6C1280.9 136.6 1284.4 126.9 1284.4 113.7V68.1C1284.4 54.9 1280.8 45.2 1273.8 39.2C1266.6 33.1 1256.8 30 1244.6 30ZM1244.6 133.4C1236.5 133.4 1226.8 130 1226.8 113.7V68.1C1226.8 51.8 1236.5 48.4 1244.6 48.4C1252.8 48.4 1262.6 51.8 1262.6 68.1V113.7C1262.6 130 1252.8 133.4 1244.6 133.4ZM1244.6 53.4C1235.9 53.4 1231.8 58.1 1231.8 68.1V113.7C1231.8 123.9 1235.8 128.4 1244.6 128.4C1253.5 128.4 1257.6 123.7 1257.6 113.7V68.1C1257.6 58.1 1253.5 53.4 1244.6 53.4Z" fill="#3AD9DB"/>
<path d="M541.6 146.8C528.3 146.8 517.5 143.3 509.4 136.4C501.2 129.4 497 118.4 497 103.7V58.1C497 43.4 501.2 32.4 509.4 25.4C517.5 18.5 528.4 15 541.6 15C555 15 565.9 18.5 574 25.4C582.2 32.4 586.4 43.4 586.4 58.1V103.7C586.4 118.4 582.2 129.4 574 136.4C565.9 143.3 555 146.8 541.6 146.8ZM541.6 20C529.5 20 519.8 23.1 512.6 29.2C505.5 35.2 502 44.9 502 58.1V103.7C502 116.9 505.6 126.6 512.6 132.6C519.8 138.7 529.5 141.8 541.6 141.8C553.8 141.8 563.6 138.7 570.8 132.6C577.9 126.6 581.4 116.9 581.4 103.7V58.1C581.4 44.9 577.8 35.2 570.8 29.2C563.6 23.1 553.8 20 541.6 20ZM541.6 123.4C533.5 123.4 523.8 120 523.8 103.7V58.1C523.8 41.8 533.5 38.4 541.6 38.4C549.8 38.4 559.6 41.8 559.6 58.1V103.7C559.6 120 549.8 123.4 541.6 123.4ZM541.6 43.4C532.9 43.4 528.8 48.1 528.8 58.1V103.7C528.8 113.9 532.8 118.4 541.6 118.4C550.5 118.4 554.6 113.7 554.6 103.7V58.1C554.6 48.1 550.5 43.4 541.6 43.4Z" fill="#3AD9DB"/>
<path d="M659.6 146.8C646.3 146.8 635.5 143.3 627.4 136.4C619.2 129.4 615 118.4 615 103.7V58.1C615 43.4 619.2 32.4 627.4 25.4C635.5 18.5 646.4 15 659.6 15C673 15 683.9 18.5 692 25.4C700.2 32.4 704.4 43.4 704.4 58.1V103.7C704.4 118.4 700.2 129.4 692 136.4C683.9 143.3 673 146.8 659.6 146.8ZM659.6 20C647.5 20 637.8 23.1 630.6 29.2C623.5 35.2 620 44.9 620 58.1V103.7C620 116.9 623.6 126.6 630.6 132.6C637.8 138.7 647.5 141.8 659.6 141.8C671.8 141.8 681.6 138.7 688.8 132.6C695.9 126.6 699.4 116.9 699.4 103.7V58.1C699.4 44.9 695.8 35.2 688.8 29.2C681.6 23.1 671.8 20 659.6 20ZM659.6 123.4C651.5 123.4 641.8 120 641.8 103.7V58.1C641.8 41.8 651.5 38.4 659.6 38.4C667.8 38.4 677.6 41.8 677.6 58.1V103.7C677.6 120 667.8 123.4 659.6 123.4ZM659.6 43.4C650.9 43.4 646.8 48.1 646.8 58.1V103.7C646.8 113.9 650.8 118.4 659.6 118.4C668.5 118.4 672.6 113.7 672.6 103.7V58.1C672.6 48.1 668.5 43.4 659.6 43.4Z" fill="#3AD9DB"/>
<path d="M1103 155.7C1098.9 155.7 1095.3 154.9 1092.3 153.2C1088 150.8 1087 147.4 1087 144.9V35.7C1087 32.2 1088.6 29.4 1091.6 27.5C1094.3 25.8 1097.5 25 1101.2 25H1160.9C1164.4 25 1167.2 26.6 1169.1 29.7C1170.7 32.4 1171.5 35.5 1171.5 39.1C1171.5 42.9 1170.6 46.2 1169 48.9C1167.1 51.9 1164.3 53.5 1160.9 53.5H1118.9V77.6H1142.4C1145.7 77.6 1148.5 79 1150.4 81.8C1152.1 84.3 1153 87.3 1153 90.6C1153 93.7 1152.2 96.6 1150.5 99C1148.7 101.8 1145.9 103.2 1142.4 103.2H1118.9V145.1C1118.9 147.6 1118 151 1113.6 153.4C1110.7 154.8 1107.1 155.7 1103 155.7ZM1101.3 29.9C1098.6 29.9 1096.2 30.5 1094.4 31.7C1092.8 32.7 1092.1 33.9 1092.1 35.7V144.9C1092.1 146.1 1092.4 147.5 1094.7 148.8C1097 150 1099.7 150.6 1103 150.6C1106.2 150.6 1109 150 1111.3 148.8C1113.6 147.5 1114 146 1114 144.9V100.5C1114 99.1 1115.1 98 1116.5 98H1142.5C1144.3 98 1145.5 97.4 1146.4 96C1147.5 94.3 1148 92.5 1148 90.3C1148 87.9 1147.4 86 1146.3 84.3C1145.3 82.9 1144.1 82.3 1142.4 82.3H1116.4C1115 82.3 1113.9 81.2 1113.9 79.8V50.8C1113.9 49.4 1115 48.3 1116.4 48.3H1160.9C1162.6 48.3 1163.7 47.6 1164.7 46C1165.9 44.1 1166.5 41.7 1166.5 38.9C1166.5 36.2 1165.9 34 1164.8 32.1C1163.9 30.6 1162.7 29.9 1160.9 29.9H1101.3V29.9Z" fill="#3AD9DB"/>
<path d="M709.2 126C704.7 126 701 129.7 701 134.2C701 138.7 704.7 142.4 709.2 142.4C713.7 142.4 717.4 138.7 717.4 134.2C717.5 129.7 713.8 126 709.2 126ZM709.2 137C707.7 137 706.5 135.8 706.5 134.3C706.5 132.8 707.7 131.6 709.2 131.6C710.7 131.6 711.9 132.8 711.9 134.3C711.9 135.8 710.8 137 709.2 137Z" fill="#3AD9DB"/>
<path d="M1367.6 44.1C1366.1 44.1 1365 45.3 1365 46.7V46.9C1365 48.4 1366.2 49.5 1367.6 49.5H1399C1398 47.8 1397.1 46 1396.3 44H1367.6V44.1Z" fill="#3AD9DB"/>
<path d="M1364.9 156.8C1351.2 156.8 1340 153.3 1331.7 146.4C1323.3 139.4 1319 128.4 1319 113.7V35.6C1319 32 1320.8 29.2 1324.2 27.4C1327.1 25.8 1330.7 25 1334.9 25C1339 25 1342.5 25.8 1345.5 27.3C1349.9 29.6 1350.8 33 1350.8 35.5V113.7C1350.8 123.7 1355.3 128.4 1364.8 128.4C1374.4 128.4 1378.8 123.7 1378.8 113.7V35.6C1378.8 32 1380.6 29.2 1384 27.4C1386.9 25.8 1390.5 25 1394.7 25C1398.8 25 1402.3 25.8 1405.3 27.3C1409.7 29.6 1410.6 33 1410.6 35.5V113.7C1410.6 128.4 1406.3 139.4 1397.8 146.4C1389.6 153.3 1378.5 156.8 1364.9 156.8ZM1335 30C1331.6 30 1328.8 30.6 1326.6 31.8C1324.3 33 1324.1 34.5 1324.1 35.6V113.7C1324.1 126.8 1327.8 136.6 1335 142.6C1342.4 148.7 1352.4 151.8 1365 151.8C1377.4 151.8 1387.5 148.7 1394.9 142.6C1402.2 136.6 1405.9 126.9 1405.9 113.7V35.6C1405.9 34.5 1405.6 33 1403.3 31.8C1401 30.6 1398.2 30 1395 30C1391.6 30 1388.8 30.6 1386.6 31.8C1384.3 33 1384.1 34.5 1384.1 35.6V113.7C1384.1 126.6 1377.5 133.4 1365.1 133.4C1352.7 133.4 1346.1 126.6 1346.1 113.7V35.6C1346.1 34.5 1345.8 33 1343.5 31.8C1341 30.6 1338.2 30 1335 30Z" fill="#3AD9DB"/>
<path d="M1415.6 125.4C1417.1 125.4 1418.3 124.2 1418.3 122.7C1418.3 121.2 1417.1 120 1415.6 120H1403V125.5H1415.6V125.4Z" fill="#3AD9DB"/>
<path d="M1336 50H1333.7C1332.2 50 1331 51.2 1331 52.7C1331 54.2 1332.2 55.4 1333.7 55.4H1336C1337.5 55.4 1338.7 54.2 1338.7 52.7C1338.8 51.2 1337.5 50 1336 50Z" fill="#3AD9DB"/>
<path d="M1334.4 133.7C1334.4 132.2 1333.2 131 1331.7 131H1320.7C1319.2 131 1318 132.2 1318 133.7C1318 135.2 1319.2 136.4 1320.7 136.4H1331.7C1333.2 136.4 1334.4 135.2 1334.4 133.7Z" fill="#3AD9DB"/>
<path d="M339.6 111.4H361.1C362.6 111.4 363.7 110.2 363.7 108.8V108.6C363.7 107.1 362.5 106 361.1 106H339.6C338.1 106 337 107.2 337 108.6V108.8C337 110.3 338.2 111.4 339.6 111.4Z" fill="#3AD9DB"/>
<path d="M357.6 123.4H364.7C366.2 123.4 367.3 122.2 367.3 120.8V120.6C367.3 119.1 366.1 118 364.7 118H357.6C356.1 118 355 119.2 355 120.6V120.8C355 122.2 356.2 123.4 357.6 123.4Z" fill="#3AD9DB"/>
<path d="M374.4 133.6C374.4 132.1 373.2 131 371.8 131H367C367.2 132.7 367.4 134.5 367.4 136.5H371.8C373.3 136.5 374.4 135.3 374.4 133.9V133.6Z" fill="#3AD9DB"/>
<path d="M612.1 39.1H607.6V34.6C607.6 33.1 606.4 32 605 32H604.7C603.2 32 602.1 33.2 602.1 34.6V39.1H597.6C596.1 39.1 595 40.3 595 41.7V41.9C595 43.4 596.2 44.5 597.6 44.5H602.1V49C602.1 50.5 603.3 51.6 604.7 51.6H604.9C606.4 51.6 607.5 50.4 607.5 49V44.5H612C613.5 44.5 614.6 43.3 614.6 41.9V41.8V41.7C614.7 40.3 613.5 39.1 612.1 39.1Z" fill="#3AD9DB"/>
<path d="M431.4 146.7H393.2C389.1 146.7 385.7 145.7 383.2 143.8C379.8 141.2 379 138.2 379 136.1V26.7C379 23.2 380.6 20.4 383.6 18.5C386.3 16.8 389.5 16 393.2 16H428.5C452.6 16 465.4 27.5 465.4 49.1C465.4 61.6 461.5 70.6 453.9 75.9C457.9 78 461.2 80.8 463.6 84C466.9 88.5 468.6 95.1 468.6 103.6V107.2C468.6 120.7 465.2 130.8 458.4 137.1C451.6 143.4 442.5 146.7 431.4 146.7ZM393.2 20.9C390.5 20.9 388.1 21.5 386.3 22.7C384.7 23.7 384 24.9 384 26.7V136.1C384 137 384.2 138.3 386.2 139.8C387.9 141.1 390.2 141.7 393.2 141.7H431.4C441.2 141.7 449.1 138.9 454.9 133.5C460.6 128.1 463.5 119.3 463.5 107.2V103.6C463.5 96.2 462.2 90.5 459.5 86.9C456.8 83.2 452.8 80.4 447.4 78.4C446.4 78 445.8 77.1 445.8 76.1C445.8 75.1 446.4 74.1 447.3 73.7C456.1 69.9 460.4 61.8 460.4 49C460.4 30.1 450 20.9 428.5 20.9H393.2V20.9ZM425.4 123.3H408.2C406.8 123.3 405.7 122.2 405.7 120.8V86.4C405.7 85 406.8 83.9 408.2 83.9H425.4C432.8 83.9 441.7 87.1 441.7 102.2V105C441.6 120.1 432.8 123.3 425.4 123.3ZM410.7 118.3H425.4C433.2 118.3 436.7 114.2 436.7 105V102.2C436.7 93 433.2 88.9 425.4 88.9H410.7V118.3ZM426.2 68.2H408.1C406.7 68.2 405.6 67.1 405.6 65.7V41.8C405.6 40.4 406.7 39.3 408.1 39.3H426.2C430.1 39.3 433.3 40.9 435.5 44C437.5 46.8 438.5 50.2 438.5 53.9C438.5 57.6 437.5 60.9 435.4 63.7C433.3 66.6 430.1 68.2 426.2 68.2ZM410.7 63.2H426.3C428.6 63.2 430.3 62.4 431.5 60.7C432.9 58.8 433.6 56.5 433.6 53.8C433.6 51.1 432.9 48.8 431.5 46.8C430.2 45.1 428.6 44.2 426.3 44.2H410.7V63.2V63.2Z" fill="#3AD9DB"/>
<path d="M732.7 117C731.2 117 730 118.2 730 119.7C730 121.2 731.2 122.4 732.7 122.4H744.7V117H732.7Z" fill="#3AD9DB"/>
<path d="M784.4 119.7C784.4 118.2 783.2 117 781.7 117H759.7C758.2 117 757 118.2 757 119.7C757 121.2 758.2 122.4 759.7 122.4H781.6C783.2 122.5 784.4 121.3 784.4 119.7Z" fill="#3AD9DB"/>
<path d="M543.5 64.7C543.5 63.2 542.3 62 540.8 62H505.7C504.2 62 503 63.2 503 64.7C503 66.2 504.2 67.4 505.7 67.4H540.7C542.2 67.5 543.5 66.2 543.5 64.7Z" fill="#3AD9DB"/>
<path d="M826 106H823.7C822.2 106 821 107.2 821 108.7C821 110.2 822.2 111.4 823.7 111.4H826C827.5 111.4 828.7 110.2 828.7 108.7C828.7 107.2 827.6 106 826 106Z" fill="#3AD9DB"/>
<path d="M808.7 67.4H815.6C817.1 67.4 818.3 66.2 818.3 64.7C818.3 63.2 817.1 62 815.6 62H808.7C807.2 62 806 63.2 806 64.7C806 66.2 807.2 67.4 808.7 67.4Z" fill="#3AD9DB"/>
<path d="M750.7 80.7C750.7 79.2 749.5 78 748 78H726.7C725.2 78 724 79.2 724 80.7C724 82.2 725.2 83.4 726.7 83.4H748C749.5 83.4 750.7 82.2 750.7 80.7Z" fill="#3AD9DB"/>
<path d="M823.7 62C822.2 62 821 63.2 821 64.7C821 66.2 822.2 67.4 823.7 67.4H842.2C843.7 67.4 844.9 66.2 844.9 64.7C844.9 63.2 843.7 62 842.2 62H823.7Z" fill="#3AD9DB"/>
<path d="M812.5 146.7C807.5 146.7 803.6 144.6 801.1 140.5L773.6 98.8L769 104.7V135C769 137.5 768.1 140.9 763.7 143.3C760.7 144.9 757.1 145.8 753 145.8C748.9 145.8 745.3 145 742.3 143.3C738 140.9 737 137.5 737 135V25.5C737 23 737.9 19.5 742.3 17.3C745.3 15.7 748.9 15 752.9 15C757 15 760.5 15.8 763.5 17.3C767.9 19.6 768.8 23 768.8 25.5V58.9L796.4 19.8C798.6 16.6 801.7 15 805.5 15C809.6 15 813.7 16.7 817.7 20C821.8 23.4 823.8 27.2 823.8 31.3C823.8 33.7 823.1 35.9 821.6 37.9L821.5 38L794.4 72L829 125C830.2 126.9 830.8 128.9 830.8 130.8C830.8 134.9 828.8 138.6 824.7 141.9C821.2 145.1 816.9 146.7 812.5 146.7ZM773.8 92C774.7 92 775.4 92.5 775.9 93.1L805.3 137.8C806.9 140.5 809.2 141.7 812.5 141.7C815.8 141.7 818.9 140.5 821.9 138C824.8 135.7 826.1 133.3 826.1 130.7C826.1 129.7 825.8 128.6 825.1 127.5L789.6 73.1C789 72.2 789.1 71 789.7 70.2L817.9 34.8C818.7 33.6 819.1 32.4 819.1 31.1C819.1 28.5 817.7 26.1 814.7 23.6C811.7 21.1 808.7 19.8 805.7 19.8C803.6 19.8 802 20.7 800.7 22.5L768.6 68.2C768 69.1 766.8 69.5 765.8 69.1C764.8 68.8 764.1 67.8 764.1 66.7V25.5C764.1 24.4 763.8 22.9 761.5 21.7C759.2 20.5 756.4 19.9 753.2 19.9C750 19.9 747.2 20.5 744.9 21.7C742.6 22.9 742.3 24.4 742.3 25.5V134.9C742.3 136.1 742.6 137.5 744.9 138.8C747.2 140 749.9 140.6 753.2 140.6C756.4 140.6 759.2 140 761.5 138.8C763.8 137.5 764.2 136 764.2 134.9V103.8C764.2 103.2 764.4 102.7 764.7 102.3L771.9 93C772.3 92.3 773 92 773.8 92Z" fill="#3AD9DB"/>
<path d="M966 113.8C966 115.3 967.2 116.4 968.6 116.4H979.8C981.3 116.4 982.4 115.2 982.4 113.8V113.6C982.4 112.1 981.2 111 979.8 111H968.6C967.1 111 966 112.2 966 113.6V113.8Z" fill="#3AD9DB"/>
<path d="M558 103.8C558 105.3 559.2 106.4 560.6 106.4H571.8C573.3 106.4 574.4 105.2 574.4 103.8V103.6C574.4 102.1 573.2 101 571.8 101H560.6C559.1 101 558 102.2 558 103.6V103.8Z" fill="#3AD9DB"/>
<path d="M509 103.8C509 105.3 510.2 106.4 511.6 106.4H522.8C524.3 106.4 525.4 105.2 525.4 103.8V103.6C525.4 102.1 524.2 101 522.8 101H511.6C510.1 101 509 102.2 509 103.6V103.8Z" fill="#3AD9DB"/>
<path d="M959.1 116.4C960.6 116.4 961.7 115.2 961.7 113.8V113.6C961.7 112.1 960.5 111 959.1 111H952C952.8 112.8 953.4 114.6 954 116.5H959.1V116.4Z" fill="#3AD9DB"/>
<path d="M991.3 126H961.6C960.1 126 959 127.2 959 128.6V128.8C959 130.3 960.2 131.4 961.6 131.4H991.3C992.8 131.4 993.9 130.2 993.9 128.8V128.6C994 127.2 992.8 126 991.3 126Z" fill="#3AD9DB"/>
<path d="M945 128.606V128.806C945 130.306 946.2 131.406 947.6 131.406H954.7C956.2 131.406 957.3 130.206 957.3 128.806V128.606C957.3 127.106 956.1 126.006 954.7 126.006H947.6C946.1 125.906 945 127.106 945 128.606Z" fill="#3AD9DB"/>
<path d="M939.6 54.6H944.1V59.1C944.1 60.6 945.3 61.7 946.7 61.7H946.9C948.4 61.7 949.5 60.5 949.5 59.1V54.6H954C955.5 54.6 956.6 53.4 956.6 52V51.7C956.6 50.2 955.4 49.1 954 49.1H949.6V44.6C949.6 43.1 948.4 42 947 42H946.8C945.3 42 944.2 43.2 944.2 44.6V49.1H939.6C938.1 49.1 937 50.3 937 51.7V51.8V51.9C937 53.4 938.2 54.6 939.6 54.6Z" fill="#3AD9DB"/>
<path d="M902 147.4C890.5 147.4 880.3 145 871.7 140.2C862.6 135.2 858 129.2 858 122.5C858 118.8 859.3 115 862 111.4C864.8 107.5 868.3 105.6 872.2 105.6C874.4 105.6 876.8 106.4 879.3 108.1C881.5 109.6 883.6 111.2 885.5 113C887.1 114.5 889.3 115.9 892.3 117.1C895.2 118.3 898.3 119 901.5 119C905.5 119 909 118.2 912 116.5C914.5 115.1 915.7 113 915.7 110.2C915.7 107.2 914.2 104.6 911.1 102.2C907.5 99.5 903.1 96.9 898 94.7C892.6 92.3 887.2 89.6 881.7 86.7C876 83.6 871.1 79.1 867.2 73.5C863.2 67.7 861.2 60.8 861.2 52.8C861.2 39.8 865.9 30 875.2 23.5C884.2 17.2 895.1 14 907.8 14C910.9 14 914.1 14.2 917.4 14.5C920.8 14.9 924.6 15.6 928.7 16.6C933.1 17.7 936.8 19.5 939.7 22C942.8 24.7 944.4 28.1 944.4 32C944.4 35.5 943.3 39.1 941.2 42.7C938.9 46.7 935.4 48.8 931.2 48.8C930 48.8 927.7 48.4 921.3 45.3C917.2 43.3 912.6 42.3 907.6 42.3C902.4 42.3 898.6 43.2 896.1 44.9C893.2 46.9 892.9 48.9 892.9 50.2C892.9 52.1 893.9 53.8 896 55.5C898.5 57.5 901.6 59.3 905.4 60.7C909.5 62.3 914 64.3 918.8 66.8C923.7 69.3 928.2 72.1 932.3 75.1C936.6 78.2 940.3 82.7 943.1 88.3C946 93.9 947.4 100.4 947.4 107.5C947.4 120 943.1 130 934.6 137C926.4 143.9 915.4 147.4 902 147.4ZM872.2 110.6C869.9 110.6 867.9 111.8 866 114.4C864 117.2 863 119.9 863 122.6C863 127.3 866.7 131.8 874.1 135.9C881.9 140.3 891.3 142.5 902 142.5C914.2 142.5 924.1 139.4 931.5 133.2C938.9 127.1 942.5 118.7 942.5 107.5C942.5 101.2 941.2 95.5 938.7 90.6C936.2 85.7 933.1 81.9 929.4 79.2C925.5 76.4 921.2 73.7 916.6 71.3C911.9 68.9 907.6 66.9 903.7 65.4C899.5 63.8 895.8 61.8 893 59.4C889.7 56.7 888 53.7 888 50.2C888 46.5 889.8 43.3 893.4 40.8C896.7 38.5 901.4 37.3 907.7 37.3C913.4 37.3 918.8 38.5 923.6 40.8C929.5 43.7 931 43.8 931.3 43.8C933.7 43.8 935.5 42.6 937 40.2C938.7 37.3 939.5 34.6 939.5 32C939.5 29.5 938.5 27.5 936.5 25.7C934.2 23.7 931.2 22.3 927.6 21.4C923.7 20.4 920.1 19.8 916.9 19.4C913.7 19.1 910.7 18.9 907.8 18.9C896.2 18.9 886.2 21.8 878.1 27.5C870.1 33.1 866.3 41.3 866.3 52.7C866.3 59.6 868 65.6 871.4 70.5C874.9 75.5 879.2 79.5 884.2 82.2C889.5 85.1 894.9 87.7 900.1 90C905.6 92.4 910.3 95.2 914.2 98.1C918.6 101.5 920.8 105.5 920.8 110.1C920.8 114.8 918.6 118.5 914.5 120.8C910.8 122.9 906.5 124 901.6 124C897.7 124 894 123.2 890.5 121.7C887 120.2 884.3 118.5 882.3 116.6C880.6 115 878.8 113.6 876.8 112.3C874.9 111.1 873.4 110.6 872.2 110.6Z" fill="#3AD9DB"/>
</svg>
