<svg width="1945" height="350" viewBox="0 0 1945 350" fill="none" xmlns="http://www.w3.org/2000/svg">
<path d="M977.976 347.747C1405.32 347.747 1751.74 301.943 1751.74 245.442C1751.74 188.94 1405.32 143.136 977.976 143.136C550.637 143.136 204.21 188.94 204.21 245.442C204.21 301.943 550.637 347.747 977.976 347.747Z" fill="#F2F2F2"/>
<path d="M1839.2 61.4C1843.7 61.4 1847.4 57.7 1847.4 53.2C1847.4 48.7 1843.7 45 1839.2 45C1834.7 45 1831 48.7 1831 53.2C1830.9 57.7 1834.6 61.4 1839.2 61.4ZM1839.2 50.4C1840.7 50.4 1841.9 51.6 1841.9 53.1C1841.9 54.6 1840.7 55.8 1839.2 55.8C1837.7 55.8 1836.5 54.6 1836.5 53.1C1836.4 51.7 1837.6 50.4 1839.2 50.4Z" fill="#3AD9DB"/>
<path d="M1942.2 178H1923.7C1922.2 178 1921 179.2 1921 180.7C1921 182.2 1922.2 183.4 1923.7 183.4H1942.2C1943.7 183.4 1944.9 182.2 1944.9 180.7C1944.9 179.2 1943.7 178 1942.2 178Z" fill="#3AD9DB"/>
<path d="M1902.7 183.4H1909.6C1911.1 183.4 1912.3 182.2 1912.3 180.7C1912.3 179.2 1911.1 178 1909.6 178H1902.7C1901.2 178 1900 179.2 1900 180.7C1900 182.2 1901.2 183.4 1902.7 183.4Z" fill="#3AD9DB"/>
<path d="M1932.7 198.7C1932.7 197.2 1931.5 196 1930 196H1908.7C1907.2 196 1906 197.2 1906 198.7C1906 200.2 1907.2 201.4 1908.7 201.4H1930C1931.4 201.5 1932.7 200.3 1932.7 198.7Z" fill="#3AD9DB"/>
<path d="M1893.7 196C1892.2 196 1891 197.2 1891 198.7C1891 200.2 1892.2 201.4 1893.7 201.4H1896C1897.5 201.4 1898.7 200.2 1898.7 198.7C1898.7 197.2 1897.5 196 1896 196H1893.7Z" fill="#3AD9DB"/>
<path d="M1809.6 70.9V70.7C1809.6 69.2 1808.4 68.1 1807 68.1H1802.5V63.6C1802.5 62.1 1801.3 61 1799.9 61H1799.7C1798.2 61 1797.1 62.2 1797.1 63.6V68.1H1792.6C1791.1 68.1 1790 69.3 1790 70.7V70.9C1790 72.4 1791.2 73.5 1792.6 73.5H1797.1V78C1797.1 79.5 1798.3 80.6 1799.7 80.6H1799.9C1801.4 80.6 1802.5 79.4 1802.5 78V73.5H1807C1808.4 73.6 1809.6 72.4 1809.6 70.9Z" fill="#3AD9DB"/>
<path d="M1854.7 200.8H1824.2C1820.2 200.8 1816.9 199.8 1814.3 197.9C1810.8 195.3 1810 192.3 1810 190.2V80.6C1810 78.5 1810.7 75.5 1814.3 72.9C1816.9 71 1820.2 70 1824.2 70H1854.6C1868 70 1878.9 73.5 1887 80.4C1895.2 87.4 1899.4 98.4 1899.4 113.1V157.7C1899.4 172.4 1895.2 183.4 1887 190.4C1879 197.3 1868.1 200.8 1854.7 200.8ZM1824.2 75C1821.3 75 1819 75.6 1817.3 76.9C1815.3 78.4 1815 79.7 1815 80.6V190.2C1815 191.1 1815.2 192.4 1817.3 193.9C1819 195.2 1821.4 195.8 1824.2 195.8H1854.6C1866.8 195.8 1876.6 192.7 1883.8 186.6C1890.9 180.6 1894.4 170.9 1894.4 157.7V113.2C1894.4 100 1890.8 90.3 1883.8 84.3C1876.6 78.2 1866.8 75.1 1854.6 75.1H1824.2V75ZM1854.7 177.4H1839.4C1838 177.4 1836.9 176.3 1836.9 174.9V95.9C1836.9 94.5 1838 93.4 1839.4 93.4H1854.7C1862.9 93.4 1872.7 96.8 1872.7 113.1V157.7C1872.7 173.9 1862.9 177.4 1854.7 177.4ZM1841.9 172.4H1854.7C1863.6 172.4 1867.7 167.7 1867.7 157.7V113.2C1867.7 103.2 1863.6 98.5 1854.7 98.5H1841.9V172.4V172.4Z" fill="#3AD9DB"/>
<path d="M1077.6 162.4H1117.6C1119.1 162.4 1120.2 161.2 1120.2 159.8V159.6C1120.2 158.1 1119 157 1117.6 157H1077.6C1076.1 157 1075 158.2 1075 159.6V159.8C1075 161.2 1076.2 162.4 1077.6 162.4Z" fill="#3AD9DB"/>
<path d="M1155.4 196.7H1094.2C1090.5 196.7 1087.3 195.8 1084.6 194.2C1081.6 192.3 1080 189.5 1080 186V76.7C1080 73.2 1081.6 70.4 1084.6 68.5C1087.3 66.8 1090.5 66 1094.2 66H1155.4C1158.9 66 1161.7 67.6 1163.6 70.7C1165.2 73.4 1166 76.5 1166 80.1C1166 83.9 1165.1 87.2 1163.5 89.9C1161.6 92.9 1158.8 94.5 1155.4 94.5H1111.8V118.6H1135.1C1138.4 118.6 1141.2 120 1143.1 122.8C1144.8 125.3 1145.7 128.3 1145.7 131.6C1145.7 134.7 1144.9 137.6 1143.2 140C1141.4 142.8 1138.6 144.2 1135.1 144.2H1111.8V168.4H1155.4C1158.8 168.4 1161.6 170 1163.5 173C1165.2 175.7 1166 179 1166 182.8C1166 186.3 1165.2 189.5 1163.6 192.2C1161.7 195 1158.9 196.7 1155.4 196.7ZM1094.1 70.9C1091.4 70.9 1089 71.5 1087.2 72.7C1085.6 73.7 1084.9 74.9 1084.9 76.7V185.9C1084.9 187.7 1085.6 188.9 1087.2 189.9C1089.1 191.1 1091.4 191.7 1094.1 191.7H1155.3C1157.1 191.7 1158.3 191 1159.2 189.5C1160.3 187.6 1160.9 185.3 1160.9 182.7C1160.9 179.9 1160.3 177.5 1159.1 175.6C1158.1 174 1156.9 173.3 1155.3 173.3H1109.2C1107.8 173.3 1106.7 172.2 1106.7 170.8V141.6C1106.7 140.2 1107.8 139.1 1109.2 139.1H1135C1136.8 139.1 1138 138.5 1138.9 137.1C1140 135.4 1140.5 133.6 1140.5 131.4C1140.5 129 1139.9 127.1 1138.8 125.4C1137.8 124 1136.6 123.4 1134.9 123.4H1109.1C1107.7 123.4 1106.6 122.3 1106.6 120.9V91.8C1106.6 90.4 1107.7 89.3 1109.1 89.3H1155.2C1156.9 89.3 1158 88.6 1159 87C1160.2 85.1 1160.8 82.7 1160.8 79.9C1160.8 77.2 1160.2 75 1159.1 73.1C1158.2 71.6 1157 70.9 1155.2 70.9H1094.1V70.9Z" fill="#3AD9DB"/>
<path d="M1716 111H1758.5C1759.9 111 1761 109.9 1761 108.5C1761 107.1 1759.9 106 1758.5 106H1716V111V111Z" fill="#3AD9DB"/>
<path d="M1745 175.1C1745 179.6 1748.6 183.2 1753.1 183.2C1757.6 183.2 1761.2 179.5 1761.2 175.1C1761.2 170.6 1757.6 167 1753.1 167C1748.6 167 1745 170.7 1745 175.1ZM1756.3 175.1C1756.3 176.8 1754.9 178.2 1753.2 178.2C1751.5 178.2 1750.1 176.8 1750.1 175.1C1750.1 173.4 1751.5 172 1753.2 172C1754.9 172 1756.3 173.4 1756.3 175.1Z" fill="#3AD9DB"/>
<path d="M1431 124.1C1432.4 124.1 1433.5 123 1433.5 121.6V121.5C1433.5 120.1 1432.4 119 1431 119H1422.5C1421.1 119 1420 120.1 1420 121.5V121.6C1420 123 1421.1 124.1 1422.5 124.1H1431Z" fill="#3AD9DB"/>
<path d="M1476 124.1C1477.4 124.1 1478.5 123 1478.5 121.6V121.5C1478.5 120.1 1477.4 119 1476 119H1467.5C1466.1 119 1465 120.1 1465 121.5V121.6C1465 123 1466.1 124.1 1467.5 124.1H1476Z" fill="#3AD9DB"/>
<path d="M1298.5 106H1313.4V101H1298.5C1297.1 101 1296 102.1 1296 103.5V103.6C1296.1 104.9 1297.2 106 1298.5 106Z" fill="#3AD9DB"/>
<path d="M1267 83.5C1267 85 1268.1 86.1 1269.5 86.1H1282.5C1283.9 86.1 1285 85 1285 83.6V83.5C1285 82.1 1283.9 81 1282.5 81H1269.5C1268.1 81 1267 82.1 1267 83.5Z" fill="#3AD9DB"/>
<path d="M1425 180.5C1425 182 1426.1 183.1 1427.5 183.1H1440.5C1441.9 183.1 1443 182 1443 180.6V180.5C1443 179.1 1441.9 178 1440.5 178H1427.5C1426.1 178 1425 179.1 1425 180.5Z" fill="#3AD9DB"/>
<path d="M1302.5 81C1303.9 81 1305 79.9 1305 78.5C1305 77.1 1303.9 76 1302.5 76C1301.1 76 1300 77.1 1300 78.5C1300 79.9 1301.1 81 1302.5 81Z" fill="#3AD9DB"/>
<path d="M390 131H395.1C396.5 131 397.6 129.9 397.6 128.5C397.6 127.1 396.5 126 395.1 126H390V131V131Z" fill="#3AD9DB"/>
<path d="M436.5 105.1C437.9 105.1 439 104 439 102.6V102.5C439 101.1 437.9 100 436.5 100H430.5C429.1 100 428 101.1 428 102.5V102.6C428 104 429.1 105.1 430.5 105.1H436.5Z" fill="#3AD9DB"/>
<path d="M372.5 175C371.1 175 370 176.1 370 177.5V177.6C370 179 371.1 180.1 372.5 180.1H381C382.4 180.1 383.5 179 383.5 177.6V177.5C383.5 176.1 382.4 175 381 175H372.5Z" fill="#3AD9DB"/>
<path d="M447.4 89.6C447.4 88.1 446.3 87 444.9 87H400.5C399.1 87 398 88.1 398 89.5V89.6C398 91 399.1 92.1 400.5 92.1H444.9C446.3 92.1 447.4 91 447.4 89.6Z" fill="#3AD9DB"/>
<path d="M445.861 197H391.254C387.54 197 384.328 196.098 381.618 194.494C378.606 192.59 377 189.783 377 186.275V76.5241C377 74.0184 377.903 70.5103 382.32 68.3053C385.332 66.7016 388.945 66 392.961 66C397.076 66 400.59 66.8018 403.601 68.3053C408.018 70.6106 408.921 74.0184 408.921 76.5241V168.535H445.761C449.074 168.535 451.784 170.138 453.591 173.246C455.197 175.952 456 179.159 456 182.767C456 186.476 455.197 189.683 453.591 192.289C451.884 195.296 449.174 197 445.861 197ZM393.061 70.9112C389.849 70.9112 387.038 71.5126 384.729 72.7154C382.421 73.9181 382.119 75.4216 382.119 76.5241V186.175C382.119 187.979 382.822 189.182 384.428 190.184C386.335 191.387 388.644 191.989 391.355 191.989H445.962C446.966 191.989 448.271 191.688 449.475 189.783C450.579 187.879 451.182 185.574 451.182 182.767C451.182 180.061 450.579 177.656 449.475 175.751C448.271 173.747 446.966 173.546 445.962 173.546H406.612C405.207 173.546 404.103 172.444 404.103 171.041V76.5241C404.103 75.4216 403.802 73.9181 401.493 72.7154C399.084 71.5126 396.273 70.9112 393.061 70.9112Z" fill="#3AD9DB"/>
<path d="M477 89.6C477 91.1 478.2 92.2 479.6 92.2C481 92.2 482.2 91 482.2 89.6C482.2 88.1 481 87 479.6 87C478.2 87 477 88.1 477 89.6Z" fill="#3AD9DB"/>
<path d="M574.9 79.4C576.4 79.4 577.5 78.2 577.5 76.8V76.6C577.5 75.1 576.3 74 574.9 74H571V79.5H574.9V79.4Z" fill="#3AD9DB"/>
<path d="M496.6 162.1C495.1 162.1 494 163.3 494 164.7V164.9C494 166.4 495.2 167.5 496.6 167.5H502.4V162H496.6V162.1Z" fill="#3AD9DB"/>
<path d="M523.6 162.4H530.7C532.2 162.4 533.3 161.2 533.3 159.8V159.6C533.3 158.1 532.1 157 530.7 157H523.6C522.1 157 521 158.2 521 159.6V159.8C521 161.2 522.2 162.4 523.6 162.4Z" fill="#3AD9DB"/>
<path d="M462.606 128.5H480.106V123H462.606C461.106 123 460.006 124.2 460.006 125.6V125.8C459.906 127.3 461.106 128.5 462.606 128.5Z" fill="#3AD9DB"/>
<path d="M473.039 169.5C471.639 169.9 470.439 168.8 470.439 167.5C470.439 166.4 471.339 165.4 472.539 165.4C473.339 165.4 474.039 165.8 474.339 166.5V160.2C473.739 160.1 473.139 160 472.539 160C467.839 160 464.239 164.2 465.139 169.1C465.739 172 468.039 174.4 471.039 175C472.239 175.2 473.339 175.2 474.339 174.9V168.6C474.039 169 473.539 169.3 473.039 169.5Z" fill="#3AD9DB"/>
<path d="M560.4 196.7H499.2C495.5 196.7 492.3 195.8 489.6 194.2C486.6 192.3 485 189.5 485 186V76.7C485 73.2 486.6 70.4 489.6 68.5C492.3 66.8 495.5 66 499.2 66H560.4C563.9 66 566.7 67.6 568.6 70.7C570.2 73.4 571 76.5 571 80.1C571 83.9 570.1 87.2 568.5 89.9C566.6 92.9 563.8 94.5 560.4 94.5H516.8V118.6H540.1C543.4 118.6 546.2 120 548.1 122.8C549.8 125.3 550.7 128.3 550.7 131.6C550.7 134.7 549.9 137.6 548.2 140C546.4 142.8 543.6 144.2 540.1 144.2H516.8V168.4H560.4C563.8 168.4 566.6 170 568.5 173C570.2 175.7 571 179 571 182.8C571 186.3 570.2 189.5 568.6 192.2C566.7 195 563.9 196.7 560.4 196.7ZM499.1 70.9C496.4 70.9 494 71.5 492.2 72.7C490.6 73.7 489.9 74.9 489.9 76.7V185.9C489.9 187.7 490.6 188.9 492.2 189.9C494.1 191.1 496.4 191.7 499.1 191.7H560.3C562.1 191.7 563.3 191 564.2 189.5C565.3 187.6 565.9 185.3 565.9 182.7C565.9 179.9 565.3 177.5 564.1 175.6C563.1 174 561.9 173.3 560.3 173.3H514.2C512.8 173.3 511.7 172.2 511.7 170.8V141.6C511.7 140.2 512.8 139.1 514.2 139.1H540C541.8 139.1 543 138.5 543.9 137.1C545 135.4 545.5 133.6 545.5 131.4C545.5 129 544.9 127.1 543.8 125.4C542.8 124 541.6 123.4 539.9 123.4H514.1C512.7 123.4 511.6 122.3 511.6 120.9V91.8C511.6 90.4 512.7 89.3 514.1 89.3H560.2C561.9 89.3 563 88.6 564 87C565.2 85.1 565.8 82.7 565.8 79.9C565.8 77.2 565.2 75 564.1 73.1C563.2 71.6 562 70.9 560.2 70.9H499.1V70.9Z" fill="#3AD9DB"/>
<path d="M158 196.1C149.7 196.1 143.9 193.2 140.8 187.6L112.8 136.6V185.3C112.8 187.8 111.9 191.2 107.5 193.6C104.5 195.2 100.9 196.1 96.8 196.1C92.7 196.1 89.1 195.3 86.1 193.6C81.8 191.2 80.8 187.8 80.8 185.3V76.1C80.8 73.6 81.7 70.2 86.1 67.8C89.1 66.2 92.7 65.3 96.8 65.3C102.5 65.3 106.6 66.1 109.5 67.9C112.4 69.7 115.4 73.6 118.8 80.1L141.9 124.2V75.9C141.9 73.4 142.8 69.9 147.2 67.7C150.2 66.1 153.8 65.4 157.8 65.4C161.9 65.4 165.4 66.2 168.4 67.7C172.8 70 173.7 73.4 173.7 75.9V185.3C173.7 187.8 172.8 191.2 168.4 193.6C165.7 195.2 162.1 196.1 158 196.1ZM110.4 124.3C111.3 124.3 112.1 124.8 112.6 125.6L145.3 185.1C147.5 189.1 151.7 191 158.1 191C161.3 191 164.1 190.4 166.4 189.2C168.7 187.9 169.1 186.4 169.1 185.3V75.9C169.1 74.8 168.8 73.3 166.5 72.1C164.2 70.9 161.4 70.3 158.2 70.3C155 70.3 152.2 70.9 149.9 72.1C147.6 73.3 147.3 74.8 147.3 75.9V134.4C147.3 135.6 146.5 136.6 145.4 136.8C144.3 137.1 143.1 136.6 142.6 135.5L114.7 82.4C111.1 75.5 108.7 73.1 107.3 72.2C105.2 71 101.8 70.3 97.2 70.3C94 70.3 91.2 70.9 88.9 72.1C86.6 73.4 86.2 74.9 86.2 76V185.2C86.2 186.4 86.5 187.8 88.8 189.1C91.1 190.3 93.8 190.9 97.1 190.9C100.3 190.9 103.1 190.3 105.4 189.1C107.7 187.8 108 186.3 108 185.2V126.7C108 125.6 108.8 124.6 109.9 124.3C110 124.3 110.2 124.3 110.4 124.3Z" fill="#3AD9DB"/>
<path d="M53.5 157.8C49 157.8 45.3 161.5 45.3 166C45.3 170.5 49 174.2 53.5 174.2C58 174.2 61.7001 170.5 61.7001 166C61.7001 161.5 58.1 157.8 53.5 157.8ZM53.5 168.8C52 168.8 50.8 167.6 50.8 166.1C50.8 164.6 52 163.4 53.5 163.4C55 163.4 56.2001 164.6 56.2001 166.1C56.2001 167.6 55 168.8 53.5 168.8Z" fill="#3AD9DB"/>
<path d="M73.5 111V110.8C73.5 109.3 72.3 108.2 70.9 108.2H23.2999C21.7999 108.2 20.7 109.4 20.7 110.8V111C20.7 112.5 21.8999 113.6 23.2999 113.6H70.8C72.3 113.6 73.5 112.4 73.5 111Z" fill="#3AD9DB"/>
<path d="M56.9001 98.5H63.3C64.8 98.5 65.9001 97.3 65.9001 95.9V95.7C65.9001 94.2 64.7 93.1 63.3 93.1H56.9001C55.4001 93.1 54.3 94.3 54.3 95.7V95.9C54.3 97.3 55.4001 98.5 56.9001 98.5Z" fill="#3AD9DB"/>
<path d="M42.5 122.5C41 122.5 39.9 123.7 39.9 125.1V125.3C39.9 126.8 41.1 127.9 42.5 127.9H51.6C53.1 127.9 54.2 126.7 54.2 125.3V125.1C54.2 123.6 53 122.5 51.6 122.5H42.5Z" fill="#3AD9DB"/>
<path d="M112.6 139.5C112.6 138.2 111.7 137.1 110.4 136.9V142.1C111.6 141.9 112.6 140.8 112.6 139.5Z" fill="#3AD9DB"/>
<path d="M1758.2 201.8C1749.9 201.8 1744.1 198.9 1741 193.3L1713 142.3V191C1713 193.5 1712.1 196.9 1707.7 199.3C1704.7 200.9 1701.1 201.8 1697 201.8C1692.9 201.8 1689.3 201 1686.3 199.3C1682 196.9 1681 193.5 1681 191V81.8C1681 79.3 1681.9 75.9 1686.3 73.5C1689.3 71.9 1692.9 71 1697 71C1702.7 71 1706.8 71.8 1709.7 73.6C1712.6 75.4 1715.6 79.3 1719 85.8L1742.1 129.9V81.6C1742.1 79.1 1743 75.6 1747.4 73.4C1750.4 71.8 1754 71.1 1758 71.1C1762.1 71.1 1765.6 71.9 1768.6 73.4C1773 75.7 1773.9 79.1 1773.9 81.6V191C1773.9 193.5 1773 196.9 1768.6 199.3C1765.9 200.9 1762.3 201.8 1758.2 201.8ZM1710.6 130C1711.5 130 1712.3 130.5 1712.8 131.3L1745.5 190.8C1747.7 194.8 1751.9 196.7 1758.3 196.7C1761.5 196.7 1764.3 196.1 1766.6 194.9C1768.9 193.6 1769.3 192.1 1769.3 191V81.6C1769.3 80.5 1769 79 1766.7 77.8C1764.4 76.6 1761.6 76 1758.4 76C1755.2 76 1752.4 76.6 1750.1 77.8C1747.8 79 1747.5 80.5 1747.5 81.6V140.1C1747.5 141.3 1746.7 142.3 1745.6 142.5C1744.5 142.8 1743.3 142.3 1742.8 141.2L1714.9 88.1C1711.3 81.2 1708.9 78.8 1707.5 77.9C1705.4 76.7 1702 76 1697.4 76C1694.2 76 1691.4 76.6 1689.1 77.8C1686.8 79.1 1686.4 80.6 1686.4 81.7V190.9C1686.4 192.1 1686.7 193.5 1689 194.8C1691.3 196 1694 196.6 1697.3 196.6C1700.5 196.6 1703.3 196 1705.6 194.8C1707.9 193.5 1708.2 192 1708.2 190.9V132.4C1708.2 131.3 1709 130.3 1710.1 130C1710.2 130 1710.4 130 1710.6 130Z" fill="#3AD9DB"/>
<path d="M242.4 197.1C229.1 197.1 218.3 193.6 210.2 186.7C202 179.7 197.8 168.7 197.8 154V108.4C197.8 93.7 202 82.7 210.2 75.7C218.3 68.8 229.2 65.3 242.4 65.3C255.8 65.3 266.7 68.8 274.8 75.7C283 82.7 287.2 93.7 287.2 108.4V154C287.2 168.7 283 179.7 274.8 186.7C266.7 193.6 255.8 197.1 242.4 197.1ZM242.4 70.3C230.3 70.3 220.6 73.4 213.4 79.5C206.3 85.5 202.8 95.2 202.8 108.4V154C202.8 167.2 206.4 176.9 213.4 182.9C220.6 189 230.3 192.1 242.4 192.1C254.6 192.1 264.4 189 271.6 182.9C278.7 176.9 282.2 167.2 282.2 154V108.4C282.2 95.2 278.6 85.5 271.6 79.5C264.4 73.4 254.6 70.3 242.4 70.3ZM242.4 173.7C234.3 173.7 224.6 170.3 224.6 154V108.4C224.6 92.1 234.3 88.7 242.4 88.7C250.6 88.7 260.4 92.1 260.4 108.4V154C260.4 170.3 250.6 173.7 242.4 173.7ZM242.4 93.7C233.7 93.7 229.6 98.4 229.6 108.4V154C229.6 164.2 233.6 168.7 242.4 168.7C251.3 168.7 255.4 164 255.4 154V108.4C255.4 98.4 251.3 93.7 242.4 93.7Z" fill="#3AD9DB"/>
<path d="M192.7 132.6C191.2 132.6 190.1 133.8 190.1 135.2V135.4C190.1 136.9 191.3 138 192.7 138H200.3V132.5H192.7V132.6Z" fill="#3AD9DB"/>
<path d="M238.8 135.5V135.3C238.8 133.8 237.6 132.7 236.2 132.7H227.2V138.2H236.2C237.6 138.1 238.8 136.9 238.8 135.5Z" fill="#3AD9DB"/>
<path d="M188.6 163.5C187.1 163.5 186 164.7 186 166.1V166.3C186 167.8 187.2 168.9 188.6 168.9H202.1C201.6 167.2 201.2 165.3 200.9 163.4H188.6V163.5Z" fill="#3AD9DB"/>
<path d="M1478.6 201.8C1465.3 201.8 1454.5 198.3 1446.4 191.4C1438.2 184.4 1434 173.4 1434 158.7V113.1C1434 98.4 1438.2 87.4 1446.4 80.4C1454.5 73.5 1465.4 70 1478.6 70C1492 70 1502.9 73.5 1511 80.4C1519.2 87.4 1523.4 98.4 1523.4 113.1V158.7C1523.4 173.4 1519.2 184.4 1511 191.4C1502.9 198.3 1492 201.8 1478.6 201.8ZM1478.6 75C1466.5 75 1456.8 78.1 1449.6 84.2C1442.5 90.2 1439 99.9 1439 113.1V158.7C1439 171.9 1442.6 181.6 1449.6 187.6C1456.8 193.7 1466.5 196.8 1478.6 196.8C1490.8 196.8 1500.6 193.7 1507.8 187.6C1514.9 181.6 1518.4 171.9 1518.4 158.7V113.1C1518.4 99.9 1514.8 90.2 1507.8 84.2C1500.6 78.1 1490.8 75 1478.6 75ZM1478.6 178.4C1470.5 178.4 1460.8 175 1460.8 158.7V113.1C1460.8 96.8 1470.5 93.4 1478.6 93.4C1486.8 93.4 1496.6 96.8 1496.6 113.1V158.7C1496.6 175 1486.8 178.4 1478.6 178.4ZM1478.6 98.4C1469.9 98.4 1465.8 103.1 1465.8 113.1V158.7C1465.8 168.9 1469.8 173.4 1478.6 173.4C1487.5 173.4 1491.6 168.7 1491.6 158.7V113.1C1491.6 103.1 1487.5 98.4 1478.6 98.4Z" fill="#3AD9DB"/>
<path d="M1337 200.7C1332.9 200.7 1329.3 199.9 1326.3 198.2C1322 195.8 1321 192.4 1321 189.9V80.7C1321 77.2 1322.6 74.4 1325.6 72.5C1328.3 70.8 1331.5 70 1335.2 70H1394.9C1398.4 70 1401.2 71.6 1403.1 74.7C1404.7 77.4 1405.5 80.5 1405.5 84.1C1405.5 87.9 1404.6 91.2 1403 93.9C1401.1 96.9 1398.3 98.5 1394.9 98.5H1352.9V122.6H1376.4C1379.7 122.6 1382.5 124 1384.4 126.8C1386.1 129.3 1387 132.3 1387 135.6C1387 138.7 1386.2 141.6 1384.5 144C1382.7 146.8 1379.9 148.2 1376.4 148.2H1352.9V190.1C1352.9 192.6 1352 196 1347.6 198.4C1344.7 199.8 1341.1 200.7 1337 200.7ZM1335.3 74.9C1332.6 74.9 1330.2 75.5 1328.4 76.7C1326.8 77.7 1326.1 78.9 1326.1 80.7V189.9C1326.1 191.1 1326.4 192.5 1328.7 193.8C1331 195 1333.7 195.6 1337 195.6C1340.2 195.6 1343 195 1345.3 193.8C1347.6 192.5 1348 191 1348 189.9V145.5C1348 144.1 1349.1 143 1350.5 143H1376.5C1378.3 143 1379.5 142.4 1380.4 141C1381.5 139.3 1382 137.5 1382 135.3C1382 132.9 1381.4 131 1380.3 129.3C1379.3 127.9 1378.1 127.3 1376.4 127.3H1350.4C1349 127.3 1347.9 126.2 1347.9 124.8V95.8C1347.9 94.4 1349 93.3 1350.4 93.3H1394.9C1396.6 93.3 1397.7 92.6 1398.7 91C1399.9 89.1 1400.5 86.7 1400.5 83.9C1400.5 81.2 1399.9 79 1398.8 77.1C1397.9 75.6 1396.7 74.9 1394.9 74.9H1335.3V74.9Z" fill="#3AD9DB"/>
<path d="M1183.2 69.5C1184.7 69.5 1185.8 68.3 1185.8 66.9V66.7C1185.8 65.2 1184.6 64.1 1183.2 64.1H1178.7V59.6C1178.7 58.1 1177.5 57 1176.1 57H1175.9C1174.4 57 1173.3 58.2 1173.3 59.6V64.1H1168.6C1167.1 64.1 1166 65.3 1166 66.7V66.9C1166 68.4 1167.2 69.5 1168.6 69.5H1173.1V74C1173.1 75.5 1174.3 76.6 1175.7 76.6H1175.9C1177.4 76.6 1178.5 75.4 1178.5 74V69.5H1183.2Z" fill="#3AD9DB"/>
<path d="M1158.2 123C1153.7 123 1150 126.7 1150 131.2C1150 135.7 1153.7 139.4 1158.2 139.4C1162.7 139.4 1166.4 135.7 1166.4 131.2C1166.5 126.7 1162.8 123 1158.2 123ZM1158.2 134C1156.7 134 1155.5 132.8 1155.5 131.3C1155.5 129.8 1156.7 128.6 1158.2 128.6C1159.7 128.6 1160.9 129.8 1160.9 131.3C1160.9 132.8 1159.8 134 1158.2 134Z" fill="#3AD9DB"/>
<path d="M1032 196.8C1027.1 196.8 1023.3 194.6 1021.2 190.5L998.3 146.1H991V185.1C991 187.6 990.1 191 985.7 193.4C982.7 195 979.1 195.9 975 195.9C970.9 195.9 967.3 195.1 964.3 193.4C960 191 959 187.6 959 185.1V75.6C959 72.8 960 70.3 962 68.2C964 66.1 966.6 65 969.7 65H1005.3C1035 65 1050.1 78.2 1050.1 104.3C1050.1 122.1 1043.4 134.2 1030.3 140.4L1049.9 175.9C1050.7 177.1 1051.1 178.6 1051.1 180.3C1051.1 184.4 1049 188.2 1044.8 191.7C1041 195.1 1036.6 196.8 1032 196.8ZM988.5 141H999.9C1000.8 141 1001.7 141.5 1002.1 142.4L1025.7 188.2C1027 190.7 1029 191.8 1032.1 191.8C1035.5 191.8 1038.8 190.5 1041.9 187.9C1044.9 185.4 1046.4 182.9 1046.4 180.4C1046.4 179.7 1046.3 179.1 1046 178.8C1045.9 178.7 1045.9 178.6 1045.8 178.6L1024.8 140.6C1024.5 140 1024.4 139.2 1024.6 138.5C1024.8 137.8 1025.4 137.3 1026 137C1038.9 132 1045.2 121.3 1045.2 104.4C1045.2 81.3 1032.2 70.1 1005.4 70.1H969.9C968.2 70.1 966.8 70.6 965.8 71.7C964.7 72.8 964.2 74.1 964.2 75.6V185C964.2 186.2 964.5 187.6 966.8 188.9C969.1 190.1 971.8 190.7 975.1 190.7C978.3 190.7 981.1 190.1 983.4 188.9C985.7 187.6 986 186.1 986 185V143.5C986 142.2 987.1 141 988.5 141ZM1005.5 125.4H988.5C987.1 125.4 986 124.3 986 122.9V90.9C986 89.5 987.1 88.4 988.5 88.4H1005.5C1011.2 88.4 1015.6 89.9 1018.7 92.8C1021.9 95.7 1023.5 100.5 1023.5 106.9C1023.5 113.3 1021.9 118.1 1018.8 121C1015.7 123.9 1011.2 125.4 1005.5 125.4ZM991 120.4H1005.5C1009.9 120.4 1013.2 119.4 1015.3 117.4C1017.4 115.4 1018.5 111.9 1018.5 106.9C1018.5 101.9 1017.4 98.4 1015.3 96.4C1013.2 94.4 1009.8 93.4 1005.5 93.4H991V120.4Z" fill="#3AD9DB"/>
<path d="M985.6 80C984.1 80 983 81.2 983 82.6C983 84.1 984.2 85.2 985.6 85.2C987.1 85.2 988.2 84 988.2 82.6C988.2 81.2 987 80 985.6 80Z" fill="#3AD9DB"/>
<path d="M1034 177.6C1034 179.1 1035.2 180.2 1036.6 180.2C1038 180.2 1039.2 179 1039.2 177.6C1039.2 176.1 1038 175 1036.6 175C1035.2 175 1034 176.2 1034 177.6Z" fill="#3AD9DB"/>
<path d="M961.6 131.1C960.1 131.1 959 132.3 959 133.7V133.9C959 135.4 960.2 136.5 961.6 136.5H975.4C975.2 134.7 975.2 132.9 975.2 131H961.6V131.1Z" fill="#3AD9DB"/>
<path d="M1062.3 107.4C1063.8 107.4 1064.9 106.2 1064.9 104.8V104.6C1064.9 103.1 1063.7 102 1062.3 102H1038C1038 104 1038.2 105.8 1038.6 107.5H1062.3V107.4Z" fill="#3AD9DB"/>
<path d="M993.164 177.002C993.764 179.902 996.064 182.302 999.064 182.902C1003.86 183.802 1008.16 180.202 1008.16 175.502C1008.16 171.302 1004.76 168.002 1000.66 168.002C995.864 167.902 992.164 172.102 993.164 177.002ZM1002.56 175.902C1002.36 176.602 1001.86 177.202 1001.06 177.402C999.664 177.802 998.464 176.702 998.464 175.402C998.464 174.302 999.364 173.302 1000.56 173.302C1001.86 173.402 1002.86 174.602 1002.56 175.902Z" fill="#3AD9DB"/>
<path d="M888.6 84.1C887.1 84.1 886 85.3 886 86.7V86.9C886 88.4 887.2 89.5 888.6 89.5H920C919 87.8 918.1 86 917.3 84H888.6V84.1Z" fill="#3AD9DB"/>
<path d="M1601.6 89.1C1600.1 89.1 1599 90.3 1599 91.7V91.9C1599 93.4 1600.2 94.5 1601.6 94.5H1633C1632 92.8 1631.1 91 1630.3 89H1601.6V89.1Z" fill="#3AD9DB"/>
<path d="M885.9 196.8C872.2 196.8 861 193.3 852.7 186.4C844.3 179.4 840 168.4 840 153.7V75.6C840 72 841.8 69.2 845.2 67.4C848.1 65.8 851.7 65 855.9 65C860 65 863.5 65.8 866.5 67.3C870.9 69.6 871.8 73 871.8 75.5V153.7C871.8 163.7 876.3 168.4 885.8 168.4C895.4 168.4 899.8 163.7 899.8 153.7V75.6C899.8 72 901.6 69.2 905 67.4C907.9 65.8 911.5 65 915.7 65C919.8 65 923.3 65.8 926.3 67.3C930.7 69.6 931.6 73 931.6 75.5V153.7C931.6 168.4 927.3 179.4 918.8 186.4C910.6 193.3 899.5 196.8 885.9 196.8ZM856 70C852.6 70 849.8 70.6 847.6 71.8C845.3 73 845.1 74.5 845.1 75.6V153.7C845.1 166.8 848.8 176.6 856 182.6C863.4 188.7 873.4 191.8 886 191.8C898.4 191.8 908.5 188.7 915.9 182.6C923.2 176.6 926.9 166.9 926.9 153.7V75.6C926.9 74.5 926.6 73 924.3 71.8C922 70.6 919.2 70 916 70C912.6 70 909.8 70.6 907.6 71.8C905.3 73 905.1 74.5 905.1 75.6V153.7C905.1 166.6 898.5 173.4 886.1 173.4C873.7 173.4 867.1 166.6 867.1 153.7V75.6C867.1 74.5 866.8 73 864.5 71.8C862 70.6 859.2 70 856 70Z" fill="#3AD9DB"/>
<path d="M1598.9 201.8C1585.2 201.8 1574 198.3 1565.7 191.4C1557.3 184.4 1553 173.4 1553 158.7V80.6C1553 77 1554.8 74.2 1558.2 72.4C1561.1 70.8 1564.7 70 1568.9 70C1573 70 1576.5 70.8 1579.5 72.3C1583.9 74.6 1584.8 78 1584.8 80.5V158.7C1584.8 168.7 1589.3 173.4 1598.8 173.4C1608.4 173.4 1612.8 168.7 1612.8 158.7V80.6C1612.8 77 1614.6 74.2 1618 72.4C1620.9 70.8 1624.5 70 1628.7 70C1632.8 70 1636.3 70.8 1639.3 72.3C1643.7 74.6 1644.6 78 1644.6 80.5V158.7C1644.6 173.4 1640.3 184.4 1631.8 191.4C1623.6 198.3 1612.5 201.8 1598.9 201.8ZM1569 75C1565.6 75 1562.8 75.6 1560.6 76.8C1558.3 78 1558.1 79.5 1558.1 80.6V158.7C1558.1 171.8 1561.8 181.6 1569 187.6C1576.4 193.7 1586.4 196.8 1599 196.8C1611.4 196.8 1621.5 193.7 1628.9 187.6C1636.2 181.6 1639.9 171.9 1639.9 158.7V80.6C1639.9 79.5 1639.6 78 1637.3 76.8C1635 75.6 1632.2 75 1629 75C1625.6 75 1622.8 75.6 1620.6 76.8C1618.3 78 1618.1 79.5 1618.1 80.6V158.7C1618.1 171.6 1611.5 178.4 1599.1 178.4C1586.7 178.4 1580.1 171.6 1580.1 158.7V80.6C1580.1 79.5 1579.8 78 1577.5 76.8C1575 75.6 1572.2 75 1569 75Z" fill="#3AD9DB"/>
<path d="M644.2 182.6C644.2 181.1 643 180 641.6 180C640.2 180 639 181.2 639 182.6C639 184.1 640.2 185.2 641.6 185.2C643 185.2 644.2 184.1 644.2 182.6Z" fill="#3AD9DB"/>
<path d="M646.606 82.4H653.006C654.506 82.4 655.606 81.2 655.606 79.8V79.6C655.606 78.1 654.406 77 653.006 77H646.606C645.106 77 644.006 78.2 644.006 79.6V79.8C643.906 81.2 645.106 82.4 646.606 82.4Z" fill="#3AD9DB"/>
<path d="M596.606 123.4H600.906C602.406 123.4 603.506 122.2 603.506 120.8V120.6C603.506 119.1 602.306 118 600.906 118H596.606C595.106 118 594.006 119.2 594.006 120.6V120.8C593.906 122.2 595.106 123.4 596.606 123.4Z" fill="#3AD9DB"/>
<path d="M670.6 173.5H706.9C706.9 171.6 707 169.8 707.2 168H670.6C669.1 168 668 169.2 668 170.6V170.8C668 172.3 669.2 173.5 670.6 173.5Z" fill="#3AD9DB"/>
<path d="M642.8 196.8C630 196.8 619.4 193.3 611.3 186.4C603.1 179.4 599 168.4 599 153.7V108.1C599 93.4 603.1 82.4 611.3 75.4C619.4 68.5 629.9 65 642.8 65C655.9 65 666.9 68.2 675.3 74.6C684 81.1 688.4 90.3 688.4 101.7C688.4 107.5 687.1 111.4 684.4 113.7C681.8 115.9 677.9 117 672.4 117C659.8 117 656.8 111.3 656.5 106.6C656.2 97.5 652.2 93.5 643.7 93.5C634.8 93.5 630.7 98.2 630.7 108.2V153.7C630.7 163.7 634.9 168.4 643.9 168.4C646.7 168.4 649 168 650.8 167.1C652.4 166.3 653.5 165.2 654.2 163.6C655 161.6 655.6 160 655.9 158.8C656.2 157.5 656.4 155.7 656.6 153.4C657 148.7 660.1 143.1 672.3 143.1C677.9 143.1 681.9 144.2 684.4 146.4C687.1 148.7 688.4 152.6 688.4 158.4C688.4 170.3 684 179.8 675.3 186.7C666.9 193.4 655.9 196.8 642.8 196.8ZM642.8 70C631.2 70 621.7 73.1 614.6 79.2C607.6 85.2 604 94.9 604 108.1V153.7C604 166.9 607.6 176.6 614.6 182.6C621.7 188.7 631.2 191.8 642.8 191.8C654.8 191.8 664.7 188.7 672.3 182.7C679.8 176.7 683.5 168.8 683.5 158.3C683.5 154.2 682.7 151.4 681.3 150.1C680.2 149.2 677.8 148 672.4 148C662.1 148 661.8 152.2 661.6 153.8C661.4 156.4 661.1 158.3 660.8 159.8C660.5 161.4 659.8 163.2 658.8 165.5C657.6 168.2 655.7 170.2 653 171.5C650.5 172.7 647.5 173.3 643.9 173.3C635.6 173.3 625.7 169.9 625.7 153.6V108C625.7 91.7 635.5 88.3 643.7 88.3C655 88.3 661.1 94.5 661.5 106.2C661.6 107.7 661.9 111.9 672.4 111.9C676.5 111.9 679.5 111.2 681.1 109.8C682.6 108.5 683.3 105.7 683.3 101.6C683.3 91.7 679.7 84.1 672.2 78.5C664.7 72.9 654.8 70 642.8 70Z" fill="#3AD9DB"/>
<path d="M936.6 165.4C938.1 165.4 939.3 164.2 939.3 162.7C939.3 161.2 938.1 160 936.6 160H924V165.5H936.6V165.4Z" fill="#3AD9DB"/>
<path d="M1649.6 170.4C1651.1 170.4 1652.3 169.2 1652.3 167.7C1652.3 166.2 1651.1 165 1649.6 165H1637V170.5H1649.6V170.4Z" fill="#3AD9DB"/>
<path d="M857 90H854.7C853.2 90 852 91.2 852 92.7C852 94.2 853.2 95.4 854.7 95.4H857C858.5 95.4 859.7 94.2 859.7 92.7C859.8 91.2 858.5 90 857 90Z" fill="#3AD9DB"/>
<path d="M1570 95H1567.7C1566.2 95 1565 96.2 1565 97.7C1565 99.2 1566.2 100.4 1567.7 100.4H1570C1571.5 100.4 1572.7 99.2 1572.7 97.7C1572.8 96.2 1571.5 95 1570 95Z" fill="#3AD9DB"/>
<path d="M855.4 173.7C855.4 172.2 854.2 171 852.7 171H841.7C840.2 171 839 172.2 839 173.7C839 175.2 840.2 176.4 841.7 176.4H852.7C854.2 176.4 855.4 175.2 855.4 173.7Z" fill="#3AD9DB"/>
<path d="M1568.4 178.7C1568.4 177.2 1567.2 176 1565.7 176H1554.7C1553.2 176 1552 177.2 1552 178.7C1552 180.2 1553.2 181.4 1554.7 181.4H1565.7C1567.2 181.4 1568.4 180.2 1568.4 178.7Z" fill="#3AD9DB"/>
<path d="M791.7 77.1C790.2 77.1 789 78.3 789 79.8C789 81.3 790.2 82.5 791.7 82.5H794.1V77H791.7V77.1Z" fill="#3AD9DB"/>
<path d="M768.2 168H763.7C762.2 168 761 169.2 761 170.7C761 172.2 762.2 173.4 763.7 173.4H769.1C768.5 172.4 768.2 171.3 768.2 170V168Z" fill="#3AD9DB"/>
<path d="M709 82.7C709 84.2 710.2 85.4 711.7 85.4H733C734.5 85.4 735.7 84.2 735.7 82.7C735.7 81.2 734.5 80 733 80H711.7C710.2 80 709 81.2 709 82.7Z" fill="#3AD9DB"/>
<path d="M785.2 131.4C786.7 131.4 787.9 130.2 787.9 128.7C787.9 127.2 786.7 126 785.2 126H766.7C765.2 126 764 127.2 764 128.7C764 130.2 765.2 131.4 766.7 131.4H785.2Z" fill="#3AD9DB"/>
<path d="M763.8 196.8C759.7 196.8 756.1 196 753.1 194.3C748.8 191.9 747.8 188.5 747.8 186V94.4H726.6C723.2 94.4 720.4 92.8 718.5 89.8C716.8 87.1 716 83.8 716 80C716 76.4 716.8 73.3 718.4 70.6C720.2 67.6 723 66 726.6 66H800.9C804.4 66 807.2 67.6 809.1 70.6C810.7 73.3 811.5 76.4 811.5 80C811.5 83.8 810.6 87.1 809 89.8C807.1 92.8 804.3 94.4 800.9 94.4H779.7V185.9C779.7 188.4 778.8 191.9 774.4 194.2C771.5 195.9 767.9 196.8 763.8 196.8ZM726.6 71C724.8 71 723.6 71.7 722.7 73.2C721.6 75.1 721 77.3 721 80C721 82.9 721.6 85.2 722.8 87.1C723.8 88.7 725 89.4 726.6 89.4H750.3C751.7 89.4 752.8 90.5 752.8 91.9V185.9C752.8 187.1 753.1 188.6 755.5 189.9C757.8 191.1 760.5 191.8 763.8 191.8C767 191.8 769.8 191.2 772.1 189.9C774.5 188.6 774.8 187.1 774.8 185.9V91.9C774.8 90.5 775.9 89.4 777.3 89.4H801C802.7 89.4 803.8 88.7 804.8 87.1C806 85.2 806.6 82.8 806.6 80C806.6 77.3 806 75.1 804.9 73.2C804 71.7 802.8 71 801 71H726.6Z" fill="#3AD9DB"/>
</svg>
