<svg width="1668" height="248" viewBox="0 0 1668 248" fill="none" xmlns="http://www.w3.org/2000/svg">
<path d="M882.552 246.332C1248.37 246.332 1544.92 212.42 1544.92 170.587C1544.92 128.753 1248.37 94.8412 882.552 94.8412C516.734 94.8412 220.18 128.753 220.18 170.587C220.18 212.42 516.734 246.332 882.552 246.332Z" fill="#F2F2F2"/>
<path d="M1665.2 133H1646.7C1645.2 133 1644 134.2 1644 135.7C1644 137.2 1645.2 138.4 1646.7 138.4H1665.2C1666.7 138.4 1667.9 137.2 1667.9 135.7C1667.9 134.2 1666.7 133 1665.2 133Z" fill="#3AD9DB"/>
<path d="M1625.7 138.4H1632.6C1634.1 138.4 1635.3 137.2 1635.3 135.7C1635.3 134.2 1634.1 133 1632.6 133H1625.7C1624.2 133 1623 134.2 1623 135.7C1623 137.2 1624.2 138.4 1625.7 138.4Z" fill="#3AD9DB"/>
<path d="M1655.7 153.7C1655.7 152.2 1654.5 151 1653 151H1631.7C1630.2 151 1629 152.2 1629 153.7C1629 155.2 1630.2 156.4 1631.7 156.4H1653C1654.4 156.5 1655.7 155.3 1655.7 153.7Z" fill="#3AD9DB"/>
<path d="M1616.7 151C1615.2 151 1614 152.2 1614 153.7C1614 155.2 1615.2 156.4 1616.7 156.4H1619C1620.5 156.4 1621.7 155.2 1621.7 153.7C1621.7 152.2 1620.5 151 1619 151H1616.7Z" fill="#3AD9DB"/>
<path d="M1562.2 16.4C1566.7 16.4 1570.4 12.7 1570.4 8.2C1570.4 3.7 1566.7 0 1562.2 0C1557.7 0 1554 3.7 1554 8.2C1553.9 12.7 1557.6 16.4 1562.2 16.4ZM1562.2 5.4C1563.7 5.4 1564.9 6.6 1564.9 8.1C1564.9 9.6 1563.7 10.8 1562.2 10.8C1560.7 10.8 1559.5 9.6 1559.5 8.1C1559.4 6.7 1560.6 5.4 1562.2 5.4Z" fill="#3AD9DB"/>
<path d="M1532.6 25.9V25.7C1532.6 24.2 1531.4 23.1 1530 23.1H1525.5V18.6C1525.5 17.1 1524.3 16 1522.9 16H1522.7C1521.2 16 1520.1 17.2 1520.1 18.6V23.1H1515.6C1514.1 23.1 1513 24.3 1513 25.7V25.9C1513 27.4 1514.2 28.5 1515.6 28.5H1520.1V33C1520.1 34.5 1521.3 35.6 1522.7 35.6H1522.9C1524.4 35.6 1525.5 34.4 1525.5 33V28.5H1530C1531.4 28.6 1532.6 27.4 1532.6 25.9Z" fill="#3AD9DB"/>
<path d="M1577.7 155.8H1547.2C1543.2 155.8 1539.9 154.8 1537.3 152.9C1533.8 150.3 1533 147.3 1533 145.2V35.6C1533 33.5 1533.7 30.5 1537.3 27.9C1539.9 26 1543.2 25 1547.2 25H1577.6C1591 25 1601.9 28.5 1610 35.4C1618.2 42.4 1622.4 53.4 1622.4 68.1V112.7C1622.4 127.4 1618.2 138.4 1610 145.4C1602 152.3 1591.1 155.8 1577.7 155.8ZM1547.2 30C1544.3 30 1542 30.6 1540.3 31.9C1538.3 33.4 1538 34.7 1538 35.6V145.2C1538 146.1 1538.2 147.4 1540.3 148.9C1542 150.2 1544.4 150.8 1547.2 150.8H1577.6C1589.8 150.8 1599.6 147.7 1606.8 141.6C1613.9 135.6 1617.4 125.9 1617.4 112.7V68.2C1617.4 55 1613.8 45.3 1606.8 39.3C1599.6 33.2 1589.8 30.1 1577.6 30.1H1547.2V30ZM1577.7 132.4H1562.4C1561 132.4 1559.9 131.3 1559.9 129.9V50.9C1559.9 49.5 1561 48.4 1562.4 48.4H1577.7C1585.9 48.4 1595.7 51.8 1595.7 68.1V112.7C1595.7 128.9 1585.9 132.4 1577.7 132.4ZM1564.9 127.4H1577.7C1586.6 127.4 1590.7 122.7 1590.7 112.7V68.2C1590.7 58.2 1586.6 53.5 1577.7 53.5H1564.9V127.4V127.4Z" fill="#3AD9DB"/>
<path d="M686.4 124.1H726.4C727.9 124.1 729 122.9 729 121.5V121.3C729 119.8 727.8 118.7 726.4 118.7H686.4C684.9 118.7 683.8 119.9 683.8 121.3V121.5C683.8 122.9 685 124.1 686.4 124.1Z" fill="#3AD9DB"/>
<path d="M764.2 158.4H703C699.3 158.4 696.1 157.5 693.4 155.9C690.4 154 688.8 151.2 688.8 147.7V38.3999C688.8 34.8999 690.4 32.1 693.4 30.2C696.1 28.5 699.3 27.7 703 27.7H764.2C767.7 27.7 770.5 29.2999 772.4 32.3999C774 35.0999 774.8 38.1999 774.8 41.7999C774.8 45.5999 773.9 48.9 772.3 51.6C770.4 54.6 767.6 56.2 764.2 56.2H720.6V80.2999H743.9C747.2 80.2999 750 81.6999 751.9 84.4999C753.6 86.9999 754.5 89.9999 754.5 93.2999C754.5 96.3999 753.7 99.2999 752 101.7C750.2 104.5 747.4 105.9 743.9 105.9H720.6V130.1H764.2C767.6 130.1 770.4 131.7 772.3 134.7C774 137.4 774.8 140.7 774.8 144.5C774.8 148 774 151.2 772.4 153.9C770.5 156.7 767.7 158.4 764.2 158.4ZM702.9 32.6C700.2 32.6 697.8 33.1999 696 34.3999C694.4 35.3999 693.7 36.5999 693.7 38.3999V147.6C693.7 149.4 694.4 150.6 696 151.6C697.9 152.8 700.2 153.4 702.9 153.4H764.1C765.9 153.4 767.1 152.7 768 151.2C769.1 149.3 769.7 147 769.7 144.4C769.7 141.6 769.1 139.2 767.9 137.3C766.9 135.7 765.7 135 764.1 135H718C716.6 135 715.5 133.9 715.5 132.5V103.3C715.5 101.9 716.6 100.8 718 100.8H743.8C745.6 100.8 746.8 100.2 747.7 98.7999C748.8 97.0999 749.3 95.3 749.3 93.1C749.3 90.7 748.7 88.8 747.6 87.1C746.6 85.7 745.4 85.1 743.7 85.1H717.9C716.5 85.1 715.4 84 715.4 82.6V53.4999C715.4 52.0999 716.5 50.9999 717.9 50.9999H764C765.7 50.9999 766.8 50.3 767.8 48.7C769 46.8 769.6 44.4 769.6 41.6C769.6 38.9 769 36.6999 767.9 34.7999C767 33.2999 765.8 32.6 764 32.6H702.9V32.6Z" fill="#3AD9DB"/>
<path d="M1439 66H1481.5C1482.9 66 1484 64.9 1484 63.5C1484 62.1 1482.9 61 1481.5 61H1439V66V66Z" fill="#3AD9DB"/>
<path d="M1468 130.1C1468 134.6 1471.6 138.2 1476.1 138.2C1480.6 138.2 1484.2 134.5 1484.2 130.1C1484.2 125.6 1480.6 122 1476.1 122C1471.6 122 1468 125.7 1468 130.1ZM1479.3 130.1C1479.3 131.8 1477.9 133.2 1476.2 133.2C1474.5 133.2 1473.1 131.8 1473.1 130.1C1473.1 128.4 1474.5 127 1476.2 127C1477.9 127 1479.3 128.4 1479.3 130.1Z" fill="#3AD9DB"/>
<path d="M1154 79.1C1155.4 79.1 1156.5 78 1156.5 76.6V76.5C1156.5 75.1 1155.4 74 1154 74H1145.5C1144.1 74 1143 75.1 1143 76.5V76.6C1143 78 1144.1 79.1 1145.5 79.1H1154Z" fill="#3AD9DB"/>
<path d="M1199 79.1C1200.4 79.1 1201.5 78 1201.5 76.6V76.5C1201.5 75.1 1200.4 74 1199 74H1190.5C1189.1 74 1188 75.1 1188 76.5V76.6C1188 78 1189.1 79.1 1190.5 79.1H1199Z" fill="#3AD9DB"/>
<path d="M1021.5 61H1036.4V56H1021.5C1020.1 56 1019 57.1 1019 58.5V58.6C1019.1 59.9 1020.2 61 1021.5 61Z" fill="#3AD9DB"/>
<path d="M990 38.5C990 40 991.1 41.1 992.5 41.1H1005.5C1006.9 41.1 1008 40 1008 38.6V38.5C1008 37.1 1006.9 36 1005.5 36H992.5C991.1 36 990 37.1 990 38.5Z" fill="#3AD9DB"/>
<path d="M1148 135.5C1148 137 1149.1 138.1 1150.5 138.1H1163.5C1164.9 138.1 1166 137 1166 135.6V135.5C1166 134.1 1164.9 133 1163.5 133H1150.5C1149.1 133 1148 134.1 1148 135.5Z" fill="#3AD9DB"/>
<path d="M1025.5 36C1026.9 36 1028 34.9 1028 33.5C1028 32.1 1026.9 31 1025.5 31C1024.1 31 1023 32.1 1023 33.5C1023 34.9 1024.1 36 1025.5 36Z" fill="#3AD9DB"/>
<path d="M137.3 154.8C129 154.8 123.2 151.9 120.1 146.3L92.1001 95.3V144C92.1001 146.5 91.2001 149.9 86.8001 152.3C83.8001 153.9 80.2001 154.8 76.1001 154.8C72.0001 154.8 68.4001 154 65.4001 152.3C61.1001 149.9 60.1001 146.5 60.1001 144V34.8C60.1001 32.3 61.0001 28.9 65.4001 26.5C68.4001 24.9 72.0001 24 76.1001 24C81.8001 24 85.9001 24.8 88.8001 26.6C91.7001 28.4 94.7001 32.3 98.1001 38.8L121.2 82.9V34.6C121.2 32.1 122.1 28.6 126.5 26.4C129.5 24.8 133.1 24.1 137.1 24.1C141.2 24.1 144.7 24.9 147.7 26.4C152.1 28.7 153 32.1 153 34.6V144C153 146.5 152.1 149.9 147.7 152.3C145 153.9 141.4 154.8 137.3 154.8ZM89.7001 83C90.6001 83 91.4001 83.5 91.9001 84.3L124.6 143.8C126.8 147.8 131 149.7 137.4 149.7C140.6 149.7 143.4 149.1 145.7 147.9C148 146.6 148.4 145.1 148.4 144V34.6C148.4 33.5 148.1 32 145.8 30.8C143.5 29.6 140.7 29 137.5 29C134.3 29 131.5 29.6 129.2 30.8C126.9 32 126.6 33.5 126.6 34.6V93.1C126.6 94.3 125.8 95.3 124.7 95.5C123.6 95.8 122.4 95.3 121.9 94.2L94.0001 41.1C90.4001 34.2 88.0001 31.8 86.6001 30.9C84.5001 29.7 81.1001 29 76.5001 29C73.3001 29 70.5001 29.6 68.2001 30.8C65.9001 32.1 65.5001 33.6 65.5001 34.7V143.9C65.5001 145.1 65.8001 146.5 68.1001 147.8C70.4001 149 73.1001 149.6 76.4001 149.6C79.6001 149.6 82.4001 149 84.7001 147.8C87.0001 146.5 87.3001 145 87.3001 143.9V85.4C87.3001 84.3 88.1001 83.3 89.2001 83C89.3001 83 89.5001 83 89.7001 83Z" fill="#3AD9DB"/>
<path d="M32.8001 116.5C28.3001 116.5 24.6001 120.2 24.6001 124.7C24.6001 129.2 28.3001 132.9 32.8001 132.9C37.3001 132.9 41.0001 129.2 41.0001 124.7C41.0001 120.2 37.4001 116.5 32.8001 116.5ZM32.8001 127.5C31.3001 127.5 30.1001 126.3 30.1001 124.8C30.1001 123.3 31.3001 122.1 32.8001 122.1C34.3001 122.1 35.5001 123.3 35.5001 124.8C35.5001 126.3 34.3001 127.5 32.8001 127.5Z" fill="#3AD9DB"/>
<path d="M52.8 69.7V69.5C52.8 68 51.6 66.9 50.2 66.9H2.6C1.1 66.9 0 68.1 0 69.5V69.7C0 71.2 1.2 72.3 2.6 72.3H50.1C51.6 72.3 52.8 71.1 52.8 69.7Z" fill="#3AD9DB"/>
<path d="M36.2001 57.2001H42.6001C44.1001 57.2001 45.2001 56.0001 45.2001 54.6001V54.4C45.2001 52.9 44.0001 51.8 42.6001 51.8H36.2001C34.7001 51.8 33.6001 53 33.6001 54.4V54.6001C33.6001 56.0001 34.7001 57.2001 36.2001 57.2001Z" fill="#3AD9DB"/>
<path d="M21.8002 81.2C20.3002 81.2 19.2002 82.3999 19.2002 83.7999V84C19.2002 85.5 20.4002 86.6 21.8002 86.6H30.9002C32.4002 86.6 33.5002 85.4 33.5002 84V83.7999C33.5002 82.2999 32.3002 81.2 30.9002 81.2H21.8002Z" fill="#3AD9DB"/>
<path d="M91.9001 98.2001C91.9001 96.9001 91.0001 95.8001 89.7001 95.6001V100.8C90.9001 100.6 91.9001 99.5001 91.9001 98.2001Z" fill="#3AD9DB"/>
<path d="M1481.2 156.8C1472.9 156.8 1467.1 153.9 1464 148.3L1436 97.3V146C1436 148.5 1435.1 151.9 1430.7 154.3C1427.7 155.9 1424.1 156.8 1420 156.8C1415.9 156.8 1412.3 156 1409.3 154.3C1405 151.9 1404 148.5 1404 146V36.8C1404 34.3 1404.9 30.9 1409.3 28.5C1412.3 26.9 1415.9 26 1420 26C1425.7 26 1429.8 26.8 1432.7 28.6C1435.6 30.4 1438.6 34.3 1442 40.8L1465.1 84.9V36.6C1465.1 34.1 1466 30.6 1470.4 28.4C1473.4 26.8 1477 26.1 1481 26.1C1485.1 26.1 1488.6 26.9 1491.6 28.4C1496 30.7 1496.9 34.1 1496.9 36.6V146C1496.9 148.5 1496 151.9 1491.6 154.3C1488.9 155.9 1485.3 156.8 1481.2 156.8ZM1433.6 85C1434.5 85 1435.3 85.5 1435.8 86.3L1468.5 145.8C1470.7 149.8 1474.9 151.7 1481.3 151.7C1484.5 151.7 1487.3 151.1 1489.6 149.9C1491.9 148.6 1492.3 147.1 1492.3 146V36.6C1492.3 35.5 1492 34 1489.7 32.8C1487.4 31.6 1484.6 31 1481.4 31C1478.2 31 1475.4 31.6 1473.1 32.8C1470.8 34 1470.5 35.5 1470.5 36.6V95.1C1470.5 96.3 1469.7 97.3 1468.6 97.5C1467.5 97.8 1466.3 97.3 1465.8 96.2L1437.9 43.1C1434.3 36.2 1431.9 33.8 1430.5 32.9C1428.4 31.7 1425 31 1420.4 31C1417.2 31 1414.4 31.6 1412.1 32.8C1409.8 34.1 1409.4 35.6 1409.4 36.7V145.9C1409.4 147.1 1409.7 148.5 1412 149.8C1414.3 151 1417 151.6 1420.3 151.6C1423.5 151.6 1426.3 151 1428.6 149.8C1430.9 148.5 1431.2 147 1431.2 145.9V87.4C1431.2 86.3 1432 85.3 1433.1 85C1433.2 85 1433.4 85 1433.6 85Z" fill="#3AD9DB"/>
<path d="M221.7 155.8C208.4 155.8 197.6 152.3 189.5 145.4C181.3 138.4 177.1 127.4 177.1 112.7V67.1C177.1 52.4 181.3 41.4 189.5 34.4C197.6 27.5 208.5 24 221.7 24C235.1 24 246 27.5 254.1 34.4C262.3 41.4 266.5 52.4 266.5 67.1V112.7C266.5 127.4 262.3 138.4 254.1 145.4C246 152.3 235.1 155.8 221.7 155.8ZM221.7 29C209.6 29 199.9 32.1 192.7 38.2C185.6 44.2 182.1 53.9 182.1 67.1V112.7C182.1 125.9 185.7 135.6 192.7 141.6C199.9 147.7 209.6 150.8 221.7 150.8C233.9 150.8 243.7 147.7 250.9 141.6C258 135.6 261.5 125.9 261.5 112.7V67.1C261.5 53.9 257.9 44.2 250.9 38.2C243.7 32.1 233.9 29 221.7 29ZM221.7 132.4C213.6 132.4 203.9 129 203.9 112.7V67.1C203.9 50.8 213.6 47.4 221.7 47.4C229.9 47.4 239.7 50.8 239.7 67.1V112.7C239.7 129 229.9 132.4 221.7 132.4ZM221.7 52.4C213 52.4 208.9 57.1 208.9 67.1V112.7C208.9 122.9 212.9 127.4 221.7 127.4C230.6 127.4 234.7 122.7 234.7 112.7V67.1C234.7 57.1 230.6 52.4 221.7 52.4Z" fill="#3AD9DB"/>
<path d="M172 91.3C170.5 91.3 169.4 92.4999 169.4 93.8999V94.0999C169.4 95.5999 170.6 96.7 172 96.7H179.6V91.2H172V91.3Z" fill="#3AD9DB"/>
<path d="M218.1 94.2V94C218.1 92.5 216.9 91.4 215.5 91.4H206.5V96.9H215.5C216.9 96.8 218.1 95.6 218.1 94.2Z" fill="#3AD9DB"/>
<path d="M167.9 122.2C166.4 122.2 165.3 123.4 165.3 124.8V125C165.3 126.5 166.5 127.6 167.9 127.6H181.4C180.9 125.9 180.5 124 180.2 122.1H167.9V122.2Z" fill="#3AD9DB"/>
<path d="M1201.6 156.8C1188.3 156.8 1177.5 153.3 1169.4 146.4C1161.2 139.4 1157 128.4 1157 113.7V68.1C1157 53.4 1161.2 42.4 1169.4 35.4C1177.5 28.5 1188.4 25 1201.6 25C1215 25 1225.9 28.5 1234 35.4C1242.2 42.4 1246.4 53.4 1246.4 68.1V113.7C1246.4 128.4 1242.2 139.4 1234 146.4C1225.9 153.3 1215 156.8 1201.6 156.8ZM1201.6 30C1189.5 30 1179.8 33.1 1172.6 39.2C1165.5 45.2 1162 54.9 1162 68.1V113.7C1162 126.9 1165.6 136.6 1172.6 142.6C1179.8 148.7 1189.5 151.8 1201.6 151.8C1213.8 151.8 1223.6 148.7 1230.8 142.6C1237.9 136.6 1241.4 126.9 1241.4 113.7V68.1C1241.4 54.9 1237.8 45.2 1230.8 39.2C1223.6 33.1 1213.8 30 1201.6 30ZM1201.6 133.4C1193.5 133.4 1183.8 130 1183.8 113.7V68.1C1183.8 51.8 1193.5 48.4 1201.6 48.4C1209.8 48.4 1219.6 51.8 1219.6 68.1V113.7C1219.6 130 1209.8 133.4 1201.6 133.4ZM1201.6 53.4C1192.9 53.4 1188.8 58.1 1188.8 68.1V113.7C1188.8 123.9 1192.8 128.4 1201.6 128.4C1210.5 128.4 1214.6 123.7 1214.6 113.7V68.1C1214.6 58.1 1210.5 53.4 1201.6 53.4Z" fill="#3AD9DB"/>
<path d="M1060 155.7C1055.9 155.7 1052.3 154.9 1049.3 153.2C1045 150.8 1044 147.4 1044 144.9V35.7C1044 32.2 1045.6 29.4 1048.6 27.5C1051.3 25.8 1054.5 25 1058.2 25H1117.9C1121.4 25 1124.2 26.6 1126.1 29.7C1127.7 32.4 1128.5 35.5 1128.5 39.1C1128.5 42.9 1127.6 46.2 1126 48.9C1124.1 51.9 1121.3 53.5 1117.9 53.5H1075.9V77.6H1099.4C1102.7 77.6 1105.5 79 1107.4 81.8C1109.1 84.3 1110 87.3 1110 90.6C1110 93.7 1109.2 96.6 1107.5 99C1105.7 101.8 1102.9 103.2 1099.4 103.2H1075.9V145.1C1075.9 147.6 1075 151 1070.6 153.4C1067.7 154.8 1064.1 155.7 1060 155.7ZM1058.3 29.9C1055.6 29.9 1053.2 30.5 1051.4 31.7C1049.8 32.7 1049.1 33.9 1049.1 35.7V144.9C1049.1 146.1 1049.4 147.5 1051.7 148.8C1054 150 1056.7 150.6 1060 150.6C1063.2 150.6 1066 150 1068.3 148.8C1070.6 147.5 1071 146 1071 144.9V100.5C1071 99.1 1072.1 98 1073.5 98H1099.5C1101.3 98 1102.5 97.4 1103.4 96C1104.5 94.3 1105 92.5 1105 90.3C1105 87.9 1104.4 86 1103.3 84.3C1102.3 82.9 1101.1 82.3 1099.4 82.3H1073.4C1072 82.3 1070.9 81.2 1070.9 79.8V50.8C1070.9 49.4 1072 48.3 1073.4 48.3H1117.9C1119.6 48.3 1120.7 47.6 1121.7 46C1122.9 44.1 1123.5 41.7 1123.5 38.9C1123.5 36.2 1122.9 34 1121.8 32.1C1120.9 30.6 1119.7 29.9 1117.9 29.9H1058.3V29.9Z" fill="#3AD9DB"/>
<path d="M881.8 160.5C876.9 160.5 873.1 158.3 871 154.2L848.1 109.8H840.8V148.8C840.8 151.3 839.9 154.7 835.5 157.1C832.5 158.7 828.9 159.6 824.8 159.6C820.7 159.6 817.1 158.8 814.1 157.1C809.8 154.7 808.8 151.3 808.8 148.8V39.2999C808.8 36.4999 809.8 33.9999 811.8 31.8999C813.8 29.7999 816.4 28.7 819.5 28.7H855.1C884.8 28.7 899.9 41.8999 899.9 67.9999C899.9 85.7999 893.2 97.8999 880.1 104.1L899.7 139.6C900.5 140.8 900.9 142.3 900.9 144C900.9 148.1 898.8 151.9 894.6 155.4C890.8 158.8 886.4 160.5 881.8 160.5ZM838.3 104.7H849.7C850.6 104.7 851.5 105.2 851.9 106.1L875.5 151.9C876.8 154.4 878.8 155.5 881.9 155.5C885.3 155.5 888.6 154.2 891.7 151.6C894.7 149.1 896.2 146.6 896.2 144.1C896.2 143.4 896.1 142.8 895.8 142.5C895.7 142.4 895.7 142.3 895.6 142.3L874.6 104.3C874.3 103.7 874.2 102.9 874.4 102.2C874.6 101.5 875.2 101 875.8 100.7C888.7 95.7 895 84.9999 895 68.0999C895 44.9999 882 33.7999 855.2 33.7999H819.7C818 33.7999 816.6 34.2999 815.6 35.3999C814.5 36.4999 814 37.7999 814 39.2999V148.7C814 149.9 814.3 151.3 816.6 152.6C818.9 153.8 821.6 154.4 824.9 154.4C828.1 154.4 830.9 153.8 833.2 152.6C835.5 151.3 835.8 149.8 835.8 148.7V107.2C835.8 105.9 836.9 104.7 838.3 104.7ZM855.3 89.0999H838.3C836.9 89.0999 835.8 87.9999 835.8 86.5999V54.5999C835.8 53.1999 836.9 52.0999 838.3 52.0999H855.3C861 52.0999 865.4 53.5999 868.5 56.4999C871.7 59.3999 873.3 64.1999 873.3 70.5999C873.3 76.9999 871.7 81.8 868.6 84.7C865.5 87.6 861 89.0999 855.3 89.0999ZM840.8 84.0999H855.3C859.7 84.0999 863 83.0999 865.1 81.0999C867.2 79.0999 868.3 75.5999 868.3 70.5999C868.3 65.5999 867.2 62.0999 865.1 60.0999C863 58.0999 859.6 57.0999 855.3 57.0999H840.8V84.0999Z" fill="#3AD9DB"/>
<path d="M890.1 142.6C890.1 144.1 891.3 145.2 892.7 145.2C894.1 145.2 895.3 144 895.3 142.6C895.3 141.1 894.1 140 892.7 140C891.3 140 890.1 141.2 890.1 142.6Z" fill="#3AD9DB"/>
<path d="M811.4 94.7999C809.9 94.7999 808.8 95.9999 808.8 97.3999V97.5999C808.8 99.0999 810 100.2 811.4 100.2H825.2C825 98.4 825 96.6 825 94.7H811.4V94.7999Z" fill="#3AD9DB"/>
<path d="M918.4 72.4C919.9 72.4 921 71.2 921 69.8V69.6C921 68.1 919.8 67 918.4 67H894.1C894.1 69 894.3 70.8 894.7 72.5H918.4V72.4Z" fill="#3AD9DB"/>
<path d="M842.964 140.702C843.564 143.602 845.864 146.002 848.864 146.602C853.664 147.502 857.964 143.902 857.964 139.202C857.964 135.002 854.564 131.702 850.464 131.702C845.664 131.602 841.964 135.802 842.964 140.702ZM852.364 139.602C852.164 140.302 851.664 140.902 850.864 141.102C849.464 141.502 848.264 140.402 848.264 139.102C848.264 138.002 849.164 137.002 850.364 137.002C851.664 137.102 852.664 138.302 852.364 139.602Z" fill="#3AD9DB"/>
<path d="M1324.6 44.1C1323.1 44.1 1322 45.3 1322 46.7V46.9C1322 48.4 1323.2 49.5 1324.6 49.5H1356C1355 47.8 1354.1 46 1353.3 44H1324.6V44.1Z" fill="#3AD9DB"/>
<path d="M1321.9 156.8C1308.2 156.8 1297 153.3 1288.7 146.4C1280.3 139.4 1276 128.4 1276 113.7V35.6C1276 32 1277.8 29.2 1281.2 27.4C1284.1 25.8 1287.7 25 1291.9 25C1296 25 1299.5 25.8 1302.5 27.3C1306.9 29.6 1307.8 33 1307.8 35.5V113.7C1307.8 123.7 1312.3 128.4 1321.8 128.4C1331.4 128.4 1335.8 123.7 1335.8 113.7V35.6C1335.8 32 1337.6 29.2 1341 27.4C1343.9 25.8 1347.5 25 1351.7 25C1355.8 25 1359.3 25.8 1362.3 27.3C1366.7 29.6 1367.6 33 1367.6 35.5V113.7C1367.6 128.4 1363.3 139.4 1354.8 146.4C1346.6 153.3 1335.5 156.8 1321.9 156.8ZM1292 30C1288.6 30 1285.8 30.6 1283.6 31.8C1281.3 33 1281.1 34.5 1281.1 35.6V113.7C1281.1 126.8 1284.8 136.6 1292 142.6C1299.4 148.7 1309.4 151.8 1322 151.8C1334.4 151.8 1344.5 148.7 1351.9 142.6C1359.2 136.6 1362.9 126.9 1362.9 113.7V35.6C1362.9 34.5 1362.6 33 1360.3 31.8C1358 30.6 1355.2 30 1352 30C1348.6 30 1345.8 30.6 1343.6 31.8C1341.3 33 1341.1 34.5 1341.1 35.6V113.7C1341.1 126.6 1334.5 133.4 1322.1 133.4C1309.7 133.4 1303.1 126.6 1303.1 113.7V35.6C1303.1 34.5 1302.8 33 1300.5 31.8C1298 30.6 1295.2 30 1292 30Z" fill="#3AD9DB"/>
<path d="M1372.6 125.4C1374.1 125.4 1375.3 124.2 1375.3 122.7C1375.3 121.2 1374.1 120 1372.6 120H1360V125.5H1372.6V125.4Z" fill="#3AD9DB"/>
<path d="M1293 50H1290.7C1289.2 50 1288 51.2 1288 52.7C1288 54.2 1289.2 55.4 1290.7 55.4H1293C1294.5 55.4 1295.7 54.2 1295.7 52.7C1295.8 51.2 1294.5 50 1293 50Z" fill="#3AD9DB"/>
<path d="M1291.4 133.7C1291.4 132.2 1290.2 131 1288.7 131H1277.7C1276.2 131 1275 132.2 1275 133.7C1275 135.2 1276.2 136.4 1277.7 136.4H1288.7C1290.2 136.4 1291.4 135.2 1291.4 133.7Z" fill="#3AD9DB"/>
<path d="M387.1 155.8C383 155.8 379.4 155 376.4 153.3C372.1 150.9 371.1 147.5 371.1 145V35.6C371.1 32.7 372.3 30.1 374.7 28C377 26 380 25 383.6 25H419.2C432 25 442.5 28.4 450.3 35.2C458.2 42 462.3 52.8 462.3 67.1V68C462.3 82.4 458.1 93.2 449.8 100.1C441.6 106.9 430.8 110.4 417.5 110.4H403V145.1C403 147.6 402.1 151 397.7 153.4C394.7 154.9 391.1 155.8 387.1 155.8ZM383.6 30C381.2 30 379.4 30.6 378 31.8C376.7 32.9 376.1 34.1 376.1 35.6V145C376.1 146.2 376.4 147.6 378.7 148.9C381 150.1 383.7 150.7 387 150.7C390.2 150.7 393 150.1 395.3 148.9C397.6 147.6 397.9 146.1 397.9 145V107.8C397.9 106.4 399 105.3 400.4 105.3H417.4C429.5 105.3 439.3 102.2 446.5 96.2C453.6 90.3 457.2 80.7 457.2 67.9V67C457.2 54.2 453.8 44.7 447 38.9C440.1 33 430.7 30 419.1 30H383.6V30ZM417.5 89.7H400.5C399.1 89.7 398 88.6 398 87.2V50.9C398 49.5 399.1 48.4 400.5 48.4H417.5C425.7 48.4 435.5 51.8 435.5 68.1V70C435.5 86.3 425.7 89.7 417.5 89.7ZM403 84.7H417.5C426.4 84.7 430.5 80 430.5 70V68.1C430.5 58.1 426.4 53.4 417.5 53.4H403V84.7V84.7Z" fill="#3AD9DB"/>
<path d="M416.9 134.7C418.4 134.7 419.6 133.5 419.6 132C419.6 130.5 418.4 129.3 416.9 129.3H400.5V134.8H416.9V134.7Z" fill="#3AD9DB"/>
<path d="M414.4 150.1C415.9 150.1 417.1 148.9 417.1 147.4C417.1 145.9 415.9 144.7 414.4 144.7H407.5C406 144.7 404.8 145.9 404.8 147.4C404.8 148.9 406 150.1 407.5 150.1H414.4Z" fill="#3AD9DB"/>
<path d="M435.4 135.1C436.9 135.1 438.1 133.9 438.1 132.4C438.1 130.9 436.9 129.7 435.4 129.7H428.5C427 129.7 425.8 130.9 425.8 132.4C425.8 133.9 427 135.1 428.5 135.1H435.4Z" fill="#3AD9DB"/>
<path d="M428.8 144.7H426.5C425 144.7 423.8 145.9 423.8 147.4C423.8 148.9 425 150.1 426.5 150.1H428.8C430.3 150.1 431.5 148.9 431.5 147.4C431.5 145.9 430.3 144.7 428.8 144.7Z" fill="#3AD9DB"/>
<path d="M379.6 79.9H370.7C369.2 79.9 368 81.1 368 82.6C368 84.1 369.2 85.3 370.7 85.3H379.6C379.7 85.3 379.8 85.3 380 85.3V80C379.8 79.9 379.7 79.9 379.6 79.9Z" fill="#3AD9DB"/>
<path d="M483.5 53.8C482 53.8 480.8 55 480.8 56.5C480.8 58 482 59.2 483.5 59.2H491L492.7 53.7H483.5V53.8Z" fill="#3AD9DB"/>
<path d="M484.3 67.7H477.5C476 67.7 474.8 68.8999 474.8 70.3999C474.8 71.8999 476 73.1 477.5 73.1H484.4C484.9 73.1 485.5 72.9 485.9 72.7L486.9 69.2999C486.4 68.3999 485.5 67.7 484.3 67.7Z" fill="#3AD9DB"/>
<path d="M518.8 101.7H514.3L512.8 107.2H520.2L518.8 101.7Z" fill="#3AD9DB"/>
<path d="M625.2 133.1C626.7 133.1 627.9 131.9 627.9 130.4C627.9 128.9 626.7 127.7 625.2 127.7H608.8V133.2H625.2V133.1Z" fill="#3AD9DB"/>
<path d="M622.7 148.5C624.2 148.5 625.4 147.3 625.4 145.8C625.4 144.3 624.2 143.1 622.7 143.1H615.8C614.3 143.1 613.1 144.3 613.1 145.8C613.1 147.3 614.3 148.5 615.8 148.5H622.7Z" fill="#3AD9DB"/>
<path d="M608.4 74.0999C609.9 74.0999 611.1 72.8999 611.1 71.3999C611.1 69.8999 609.9 68.7 608.4 68.7H601.5C600 68.7 598.8 69.8999 598.8 71.3999C598.8 72.8999 600 74.0999 601.5 74.0999H608.4Z" fill="#3AD9DB"/>
<path d="M649.8 68.7H647.5C646 68.7 644.8 69.8999 644.8 71.3999C644.8 72.8999 646 74.0999 647.5 74.0999H649.8C651.3 74.0999 652.5 72.8999 652.5 71.3999C652.5 69.8999 651.3 68.7 649.8 68.7Z" fill="#3AD9DB"/>
<path d="M598.8 158.5C594.7 158.5 591.1 157.7 588.1 156C583.8 153.6 582.8 150.2 582.8 147.7V38.2999C582.8 35.3999 584 32.8 586.4 30.7C588.7 28.7 591.7 27.7 595.3 27.7H630.9C643.7 27.7 654.2 31.0999 662 37.8999C669.9 44.6999 674 55.4999 674 69.7999V70.7C674 85.1 669.8 95.8999 661.5 102.8C653.3 109.6 642.5 113.1 629.2 113.1H614.7V147.8C614.7 150.3 613.8 153.7 609.4 156.1C606.4 157.6 602.8 158.5 598.8 158.5ZM595.3 32.7C592.9 32.7 591.1 33.2999 589.7 34.4999C588.4 35.5999 587.8 36.7999 587.8 38.2999V147.7C587.8 148.9 588.1 150.3 590.4 151.6C592.7 152.8 595.4 153.4 598.7 153.4C601.9 153.4 604.7 152.8 607 151.6C609.3 150.3 609.6 148.8 609.6 147.7V110.5C609.6 109.1 610.7 108 612.1 108H629.1C641.2 108 651 104.9 658.2 98.8999C665.3 92.9999 668.9 83.3999 668.9 70.5999V69.7C668.9 56.9 665.5 47.3999 658.7 41.5999C651.8 35.6999 642.4 32.7 630.8 32.7H595.3V32.7ZM629.2 92.3999H612.2C610.8 92.3999 609.7 91.2999 609.7 89.8999V53.5999C609.7 52.1999 610.8 51.0999 612.2 51.0999H629.2C637.4 51.0999 647.2 54.5 647.2 70.7999V72.7C647.2 89 637.4 92.3999 629.2 92.3999ZM614.7 87.3999H629.2C638.1 87.3999 642.2 82.7 642.2 72.7V70.7999C642.2 60.7999 638.1 56.0999 629.2 56.0999H614.7V87.3999V87.3999Z" fill="#3AD9DB"/>
<path d="M548 158.5C540.3 158.5 537.7 154.8 536.8 151.7L531.5 132H499L493.7 151.7C492.8 154.8 490.2 158.5 482.5 158.5C478.1 158.5 473.7 157.3 469.6 154.9C465.1 152.3 462.8 148.9 462.8 145C462.8 144.4 462.9 143.7 463.2 142.5V142.4L495.2 37.4999C496.3 33.8999 498.9 31.1999 502.8 29.2999C506.4 27.5999 510.5 26.7 515.1 26.7C519.7 26.7 523.8 27.5999 527.4 29.2999C531.3 31.0999 533.9 33.8999 535 37.3999L567.2 142.4V142.5C567.5 143.7 567.6 144.4 567.6 145C567.6 148.9 565.3 152.3 560.8 154.9C556.7 157.2 552.4 158.5 548 158.5ZM497.1 127H533.4C534.5 127 535.5 127.8 535.8 128.8L541.6 150.3C541.8 151.2 542.5 153.4 548 153.4C551.5 153.4 555 152.4 558.3 150.5C562.7 148 562.7 145.7 562.7 144.9C562.7 144.9 562.7 144.6 562.4 143.7L530.3 38.8999C529.6 36.6999 528 35.0999 525.3 33.7999C522.4 32.3999 519 31.7 515.1 31.7C511.2 31.7 507.8 32.3999 504.9 33.7999C502.3 35.0999 500.6 36.6999 499.9 38.8999L467.9 143.7C467.7 144.6 467.6 144.9 467.6 145C467.6 145.7 467.6 148 472 150.6C475.3 152.5 478.8 153.5 482.3 153.5C487.8 153.5 488.4 151.2 488.7 150.3L494.5 128.8C494.9 127.7 495.9 127 497.1 127ZM527.7 111.3H502.6C501.8 111.3 501.1 110.9 500.6 110.3C500.1 109.7 500 108.9 500.2 108.1L512.7 62.0999C513 60.9999 514 60.2999 515.1 60.2999C516.2 60.2999 517.2 61.0999 517.5 62.0999L530.1 108.2C530.3 109 530.1 109.8 529.7 110.4C529.2 111 528.5 111.3 527.7 111.3ZM505.8 106.3H524.4L515.1 72.2L505.8 106.3Z" fill="#3AD9DB"/>
</svg>
